<svg width="20" height="24" viewBox="0 0 20 24" fill="none" xmlns="http://www.w3.org/2000/svg">
<path d="M18.1665 6.16671H14.6665V5.00004C14.6665 3.76236 14.1748 2.57538 13.2997 1.70021C12.4245 0.825039 11.2375 0.333374 9.99984 0.333374C8.76216 0.333374 7.57518 0.825039 6.70001 1.70021C5.82484 2.57538 5.33317 3.76236 5.33317 5.00004V6.16671H1.83317C1.52375 6.16671 1.22701 6.28962 1.00821 6.50842C0.78942 6.72721 0.666504 7.02395 0.666504 7.33337V20.1667C0.666504 21.095 1.03525 21.9852 1.69163 22.6416C2.34801 23.298 3.23825 23.6667 4.1665 23.6667H15.8332C16.7614 23.6667 17.6517 23.298 18.308 22.6416C18.9644 21.9852 19.3332 21.095 19.3332 20.1667V7.33337C19.3332 7.02395 19.2103 6.72721 18.9915 6.50842C18.7727 6.28962 18.4759 6.16671 18.1665 6.16671ZM7.6665 5.00004C7.6665 4.3812 7.91234 3.78771 8.34992 3.35012C8.78751 2.91254 9.381 2.66671 9.99984 2.66671C10.6187 2.66671 11.2122 2.91254 11.6498 3.35012C12.0873 3.78771 12.3332 4.3812 12.3332 5.00004V6.16671H7.6665V5.00004ZM16.9998 20.1667C16.9998 20.4761 16.8769 20.7729 16.6581 20.9917C16.4393 21.2105 16.1426 21.3334 15.8332 21.3334H4.1665C3.85708 21.3334 3.56034 21.2105 3.34155 20.9917C3.12275 20.7729 2.99984 20.4761 2.99984 20.1667V8.50004H5.33317V9.66671C5.33317 9.97613 5.45609 10.2729 5.67488 10.4917C5.89367 10.7105 6.19042 10.8334 6.49984 10.8334C6.80926 10.8334 7.106 10.7105 7.3248 10.4917C7.54359 10.2729 7.6665 9.97613 7.6665 9.66671V8.50004H12.3332V9.66671C12.3332 9.97613 12.4561 10.2729 12.6749 10.4917C12.8937 10.7105 13.1904 10.8334 13.4998 10.8334C13.8093 10.8334 14.106 10.7105 14.3248 10.4917C14.5436 10.2729 14.6665 9.97613 14.6665 9.66671V8.50004H16.9998V20.1667Z" fill="#F9F9F9"/>
</svg>
