<svg width="28" height="24" viewBox="0 0 28 24" fill="none" xmlns="http://www.w3.org/2000/svg">
<path d="M6.93733 17.3858C7.82427 17.3364 9.14362 17.3505 10.4624 17.2758C11.8117 17.2 13.1412 17.0253 14.4754 16.8214C16.8673 16.4538 19.2114 15.8832 21.5562 15.3056C22.8094 14.9966 24.0576 14.6613 25.3128 14.3594C26.1429 14.1594 26.2317 14.0595 26.1449 13.2243C26.1388 13.1678 26.1308 13.1122 26.1196 13.0577C26.0823 12.8739 25.9126 12.7709 25.7359 12.8689C25.1633 13.1859 24.5433 13.3192 23.9142 13.4717C22.7973 13.7444 21.6895 14.0554 20.5767 14.3452C19.1084 14.729 17.6189 15.0016 16.1351 15.3005C14.7335 15.5833 13.3215 15.8246 11.9058 16.0256C10.3512 16.2468 8.79169 16.4457 7.21211 16.3952C6.62428 16.376 6.03374 16.3942 5.44682 16.4831C5.03047 16.5457 4.61028 16.5598 4.18907 16.473C3.23256 16.2771 2.29058 16.5457 1.34093 16.582C1.17946 16.5881 1.09433 16.7022 1.07484 16.8567C1.0609 16.9678 1.04828 17.0819 1.05797 17.193C1.07474 17.3828 1.18552 17.503 1.3794 17.5202C1.51856 17.5323 1.66034 17.5343 1.79949 17.5242C2.35864 17.4808 2.91758 17.4363 3.47572 17.3818C4.48697 17.2839 5.4962 17.4091 6.93733 17.3858ZM25.2876 8.89112C25.6309 8.91334 25.9591 8.82346 26.2893 8.75883C26.5478 8.70834 26.7458 8.55081 26.9154 8.35692C27.1315 8.10951 27.1477 7.86513 26.9164 7.60964C26.7235 7.39556 26.5438 7.19056 26.5296 6.88761C26.5064 6.38673 26.3236 5.97068 25.9197 5.65258C25.8137 5.56877 25.7369 5.43849 25.6662 5.31832C25.4885 5.01234 25.2411 4.78917 24.8957 4.70939C24.5271 4.62457 24.3151 4.40038 24.1969 4.05603C24.1606 3.95202 24.0828 3.86315 24.0263 3.7662C23.4537 2.80484 22.8084 2.46554 21.7259 2.65236C21.2805 2.73012 21.0291 2.57763 20.8271 2.22823C20.7433 2.08281 20.6544 1.93942 20.5757 1.78996C20.2656 1.19921 19.7971 0.845766 19.1175 0.796284C18.9508 0.784164 18.7842 0.74983 18.6186 0.725595C18.3308 0.685202 18.0693 0.721558 17.8198 0.899288C17.4734 1.14569 17.0846 1.30524 16.6563 1.35977C16.3987 1.39208 16.1735 1.50216 15.9897 1.68898C15.8864 1.79501 15.7798 1.95962 15.8611 2.0606C16.1074 2.36759 16.0543 2.75536 16.1975 3.08456C16.2786 3.27037 16.4664 3.37136 16.6791 3.34309C16.7615 3.33198 16.8447 3.30976 16.922 3.27846C17.425 3.07851 17.7976 3.24514 18.0652 3.68846C18.1824 3.88234 18.2823 4.09339 18.5217 4.15499C18.9347 4.26203 19.1124 4.54681 19.1629 4.94468C19.1962 5.20219 19.38 5.3254 19.6052 5.3981C19.7122 5.43244 19.8223 5.47485 19.9324 5.47687C20.5433 5.48798 20.9008 5.74246 21.0372 6.38471C21.1391 6.86439 21.5188 7.12391 22.0541 7.05928C22.1924 7.04211 22.3348 7.05423 22.4752 7.06534C22.9387 7.1027 23.072 7.25014 23.0467 7.69749C23.0427 7.7803 23.0174 7.86311 23.0053 7.94592C22.97 8.20847 23.0972 8.37408 23.3265 8.47406C23.9525 8.74671 24.617 8.83558 25.2876 8.89112ZM5.93982 23.3025C8.01503 23.4287 10.4738 23.1954 12.9306 22.9248C13.2933 22.8844 13.6552 22.8349 14.0172 22.7895C14.8802 22.6804 15.7445 22.5804 16.6058 22.4593C18.2783 22.223 19.9122 21.8089 21.5471 21.3959C22.8023 21.0788 24.0222 20.6638 25.2088 20.1427C25.5006 20.0144 25.7834 19.8812 25.8743 19.5519C25.9944 19.1157 26.054 18.6704 25.9389 18.22C25.8894 18.0251 25.7793 17.9564 25.5582 17.9968C25.3926 18.0271 25.229 18.0695 25.0664 18.1129C23.9 18.4219 22.7367 18.7451 21.5663 19.0379C20.5868 19.2823 19.582 19.4388 18.6156 19.7256C16.7753 20.272 14.8725 20.477 12.9968 20.8223C11.7022 21.0606 10.3768 21.1061 9.05779 21.1404C8.86148 21.1455 8.66395 21.1475 8.46925 21.1697C7.68916 21.2606 6.91219 21.3868 6.13008 21.4504C4.59169 21.5757 3.05058 21.6474 1.50654 21.5353C1.11988 21.508 0.995868 21.6241 0.9684 22.0018C0.96426 22.0584 0.96598 22.1139 0.964061 22.1704C0.927505 23.2469 0.980119 23.3015 2.08155 23.3025C3.23367 23.3045 4.38578 23.3025 5.93982 23.3025ZM3.95337 20.9385C5.1172 21.0314 6.54118 20.8304 7.96929 20.7223C8.97619 20.6466 9.97916 20.485 10.9866 20.4578C12.0875 20.4285 13.1703 20.277 14.2521 20.1154C15.7526 19.8923 17.2361 19.5772 18.7135 19.2258C20.8726 18.7118 23.0397 18.2311 25.1512 17.5383C25.2583 17.503 25.3673 17.4737 25.4713 17.4313C25.844 17.2818 26.0661 17.0243 26.0712 16.6042C26.0772 16.1539 26.1085 15.7045 26.1025 15.2561C26.0964 14.8481 25.9793 14.7663 25.5764 14.838C25.438 14.8633 25.2987 14.8895 25.1654 14.932C24.3878 15.1773 23.6031 15.3783 22.7872 15.4672C22.3711 15.5126 21.9591 15.6146 21.5663 15.7792C21.334 15.8762 21.0876 15.9478 20.8423 16.0014C19.9102 16.2013 19.0195 16.5558 18.0763 16.7204C17.3321 16.8506 16.6063 17.1051 15.8591 17.191C14.9094 17.3 13.985 17.5414 13.0393 17.6524C12.1471 17.7575 11.2514 17.8686 10.3549 17.8928C9.56867 17.914 8.78361 17.9291 7.99776 17.9786C7.32703 18.021 6.65064 18.0241 5.9793 17.9918C5.41793 17.9645 4.85778 17.9019 4.29561 17.9362C3.31415 17.9958 2.3336 18.0695 1.35254 18.1362C1.12583 18.1523 0.981425 18.2684 0.941537 18.4886C0.814904 19.1844 0.763915 19.8812 0.967296 20.5749C1.01961 20.7526 1.14371 20.8647 1.32053 20.896C1.48554 20.9253 1.6556 20.9354 1.82354 20.9364C2.44186 20.9415 3.06037 20.9385 3.95337 20.9385ZM23.1265 9.21528C22.8892 9.00422 22.7438 8.87799 22.6014 8.74772C22.4287 8.58918 22.3439 8.39428 22.3055 8.16C22.2288 7.69346 22.2146 7.66417 21.735 7.70254C21.3825 7.73082 21.128 7.60156 20.9139 7.36829C20.7453 7.18349 20.5534 6.98355 20.4787 6.75633C20.3262 6.29181 20.0273 6.06863 19.5658 6.01511C19.5396 6.01208 19.5133 5.99693 19.486 5.98784C18.9892 5.82526 18.5338 5.62127 18.45 5.01537C18.4338 4.89823 18.351 4.81139 18.2419 4.76796C17.8935 4.6276 17.5956 4.44381 17.4381 4.0732C17.3785 3.93384 17.2139 3.89445 17.0734 3.97019C16.7127 4.16408 16.3759 4.13581 16.0442 3.90557C15.7664 3.71269 15.4806 3.70865 15.1666 3.83993C14.0266 4.31556 12.8705 4.75383 11.7403 5.25168C10.8445 5.64652 10.0032 6.15548 9.13655 6.60991C7.66644 7.38041 6.21783 8.17616 4.87404 9.15469C4.19301 9.65052 3.494 10.1221 2.82135 10.629C2.50931 10.8643 2.23807 11.1542 1.9537 11.4248C1.79627 11.5753 1.74931 11.758 1.84312 11.962C1.93542 12.163 2.10497 12.2458 2.31674 12.2539C2.40065 12.2569 2.48518 12.2529 2.5691 12.2468C3.94197 12.1549 5.31392 12.0469 6.6878 11.9741C8.00735 11.9035 9.32125 11.7964 10.629 11.6015C12.7414 11.2885 14.8492 10.9603 16.9361 10.4917C18.0289 10.2463 19.1356 10.0454 20.2535 9.90702C21.0594 9.80805 21.8511 9.58993 22.6468 9.41624C22.7791 9.38695 22.9013 9.31121 23.1265 9.21528ZM6.37829 15.7459C6.77163 15.7459 7.16636 15.7237 7.55798 15.7499C8.94357 15.8438 10.3037 15.5772 11.6748 15.4722C12.2617 15.4278 12.8409 15.2884 13.4273 15.2299C14.5492 15.1188 15.6457 14.8714 16.7452 14.6421C18.1753 14.3432 19.6032 14.0312 21.0271 13.704C21.9854 13.4839 22.9417 13.2496 23.8869 12.982C24.5332 12.7992 25.1815 12.6103 25.7652 12.2498C26.0035 12.1014 26.1459 11.9146 26.1671 11.648C26.2156 11.032 26.2519 10.4139 26.2863 9.79694C26.2933 9.67677 26.2237 9.56064 26.0995 9.5566C25.4875 9.53641 24.8907 9.41825 24.2616 9.58084C23.1225 9.87672 21.9763 10.1605 20.8069 10.3301C18.9428 10.6028 17.0865 10.9209 15.2542 11.3672C14.8449 11.4672 14.4287 11.5429 14.0127 11.6116C12.8765 11.7984 11.741 11.9923 10.6008 12.1519C9.57139 12.2953 8.53852 12.4639 7.50294 12.5003C6.32153 12.5407 5.14952 12.7002 3.96913 12.7174C3.21609 12.7275 2.46488 12.8689 1.70891 12.7426C1.47453 12.7032 1.32397 12.8184 1.31357 13.0658C1.28529 13.7414 1.15351 14.4038 1.08928 15.0713C1.02829 15.7055 1.1534 15.9024 1.83343 15.8751C1.91775 15.8721 2.00318 15.858 2.08619 15.8671C2.70714 15.9317 3.32142 15.7428 3.93519 15.7954C4.75266 15.8671 5.56427 15.8408 6.37829 15.7459ZM0.230008 21.7726C0.0829758 20.2104 0.185782 18.6704 0.32322 17.1314C0.35816 16.7396 0.382191 16.3467 0.407537 15.9549C0.44369 15.3934 0.45339 14.831 0.565482 14.2766C0.678079 13.7191 0.637984 13.1536 0.596783 12.5942C0.563155 12.1377 0.703116 11.8075 1.03364 11.4753C2.15172 10.3534 3.40241 9.41018 4.74013 8.57302C4.93049 8.45386 5.117 8.32662 5.29635 8.19231C6.2663 7.4622 7.30289 6.8462 8.41391 6.35542C8.54246 6.29887 8.67354 6.24333 8.79169 6.16861C10.0085 5.3981 11.3398 4.85885 12.6433 4.26507C13.2557 3.98635 13.8849 3.74399 14.5059 3.48447C14.6874 3.40873 14.8711 3.33602 15.0469 3.24816C15.3533 3.09567 15.3779 3.03812 15.316 2.72406C15.3051 2.66852 15.2863 2.615 15.2745 2.56047C15.0888 1.69706 15.4689 0.964922 16.3326 0.756895C16.9169 0.615519 17.4512 0.417595 17.9622 0.114645C18.0995 0.0338573 18.2874 -0.0115814 18.4449 0.00255775C18.9195 0.0459805 19.3962 0.105555 19.8637 0.19846C20.3565 0.295403 20.7494 0.57715 20.9725 1.03057C21.4017 1.90407 21.4431 1.90205 22.4105 1.85156C23.1699 1.81218 23.6829 2.22116 24.1707 2.70184C24.412 2.94118 24.5857 3.23201 24.7271 3.54203C24.8483 3.8056 25.0311 3.99747 25.3199 4.10249C25.7571 4.26204 26.0914 4.54883 26.2883 4.98811C26.3438 5.10929 26.4438 5.24259 26.5589 5.30015C26.9689 5.50616 27.0689 5.88383 27.1275 6.27767C27.1749 6.59677 27.2759 6.87347 27.5253 7.08856C27.9242 7.43089 27.9475 8.16303 27.5849 8.55283C26.9295 9.25769 26.8851 10.1352 26.8387 10.9936C26.772 12.2276 26.8094 13.4657 26.7811 14.7017C26.7599 15.6257 26.7033 16.5487 26.667 17.4727C26.6549 17.7817 26.6528 18.0897 26.6569 18.3987C26.6609 18.7087 26.6498 19.0137 26.5811 19.3197C26.4418 19.9367 26.1469 20.3517 25.4956 20.5779C24.3817 20.9637 23.2881 21.3939 22.1379 21.6787C21.4047 21.8594 20.6797 22.0897 19.9516 22.2987C18.9215 22.5956 17.8733 22.7814 16.8184 22.9581C15.0428 23.256 13.2507 23.4146 11.465 23.6226C10.0721 23.7852 8.67082 23.8761 7.27291 23.9952C7.13365 24.0073 6.99187 23.9932 6.8514 23.9882C5.17285 23.9326 3.4941 23.8973 1.81454 23.9205C1.59046 23.9235 1.36406 23.9205 1.14209 23.8932C0.431776 23.8064 0.271212 23.6347 0.232838 22.9359C0.222033 22.74 0.23021 22.5431 0.230008 22.3462C0.229806 22.1492 0.230008 21.9523 0.230008 21.7726Z" fill="#939393"/>
<path d="M12.1091 9.22943C12.4953 9.21125 12.8664 9.11026 13.2096 8.91032C13.2333 8.89719 13.2548 8.87901 13.2758 8.86084C13.3696 8.78207 13.3975 8.67806 13.3685 8.56293C13.3365 8.4367 13.2253 8.38419 13.1155 8.3852C12.633 8.38621 12.2769 8.63968 11.9806 8.99312C11.9523 9.02645 11.9462 9.10622 11.9664 9.14561C11.9862 9.18398 12.0529 9.19913 12.1091 9.22943ZM11.953 9.77979C11.8114 9.76464 11.7273 9.7606 11.6448 9.74646C11.1461 9.66163 11.005 9.30011 11.3249 8.90022C11.4997 8.68108 11.6828 8.46498 11.8904 8.27816C12.399 7.82272 12.9841 7.59652 13.6712 7.79849C14.1707 7.94592 14.2712 8.22262 14.0545 8.68714C13.8166 9.1961 13.3509 9.39908 12.881 9.5758C12.5709 9.69294 12.228 9.72222 11.953 9.77979Z" fill="#939393"/>
<path d="M6.58933 10.616C6.74009 10.5867 6.95539 10.5412 7.1722 10.5049C7.52504 10.4453 7.67015 10.1888 7.76417 9.88483C7.82375 9.69296 7.65662 9.50008 7.4493 9.50513C7.21371 9.5122 7.0188 9.6142 6.86087 9.77274C6.68647 9.94744 6.53136 10.1423 6.37483 10.3342C6.34464 10.3716 6.32848 10.4372 6.33676 10.4847C6.35312 10.5786 6.43714 10.5988 6.58933 10.616ZM6.36595 11.1239C6.12419 11.1088 5.8784 11.0673 5.65987 10.929C5.46366 10.8048 5.37793 10.4988 5.54071 10.3473C6.08512 9.84343 6.55024 9.23147 7.29722 8.9881C7.54523 8.90731 7.80587 8.88206 8.02227 9.03556C8.53436 9.40112 8.57183 9.69094 8.30473 10.1635C7.87202 10.928 7.13423 11.034 6.36595 11.1239Z" fill="#939393"/>
<path d="M15.243 5.25872C15.2113 5.20924 15.1897 5.13653 15.1587 5.1325C14.8862 5.09513 14.6872 5.2153 14.559 5.45059C14.5463 5.47382 14.5981 5.56975 14.6245 5.57177C14.8919 5.59096 15.081 5.44958 15.243 5.25872ZM14.0797 6.23322C13.8901 6.18272 13.6975 6.14132 13.5125 6.0777C13.4217 6.04639 13.4001 5.91208 13.4619 5.87876C13.7791 5.70911 13.8875 5.39101 14.0743 5.11936C14.4549 4.56698 15.3644 4.46398 15.8815 4.87094C16.0451 4.99919 16.1022 5.26983 15.9546 5.38798C15.4263 5.8111 14.8456 6.13627 14.1631 6.24129C14.1363 6.24533 14.1075 6.23624 14.0797 6.23322Z" fill="#939393"/>
<path d="M18.5693 8.50333L18.5814 8.55382L18.6329 8.52454L18.5693 8.50333ZM17.4443 8.69722C17.6271 8.50434 17.7513 8.35892 17.8897 8.22866C18.2886 7.85401 18.8046 7.82674 19.2519 8.14686C19.4337 8.27713 19.4771 8.48515 19.3489 8.65178C19.0934 8.98603 18.7713 9.17689 18.3401 9.05066C18.0533 8.96684 17.7342 8.95776 17.4443 8.69722Z" fill="#939393"/>
<path d="M23.054 3.78843C23.0086 3.81671 22.9672 3.86115 22.9197 3.87023C22.8692 3.87932 22.8036 3.86922 22.7591 3.84195C22.4582 3.65816 22.1603 3.59354 21.7998 3.70361C21.4403 3.81267 21.098 3.90456 20.898 4.258C20.8586 4.32869 20.7869 4.38323 20.7243 4.43675C20.6233 4.52157 20.4315 4.42362 20.3982 4.28729C20.3638 4.13986 20.3931 4.00656 20.4638 3.88336C20.6092 3.63292 20.8152 3.4461 21.0848 3.33703C21.5059 3.16536 21.9382 3.05631 22.3966 3.14618C22.6875 3.20374 22.9258 3.33805 23.0429 3.62585C23.0621 3.67331 23.051 3.7339 23.054 3.78843Z" fill="#939393"/>
<path d="M23.785 5.90701C23.9607 5.906 24.1142 5.96457 24.2 6.12009C24.2334 6.1827 24.2273 6.27762 24.2111 6.35134C24.2031 6.38668 24.1283 6.43213 24.0859 6.43011C23.9496 6.42405 23.8143 6.40486 23.68 6.37962C23.5719 6.35942 23.4679 6.32711 23.4487 6.19078C23.4295 6.05647 23.6052 5.90701 23.785 5.90701Z" fill="#939393"/>
<path d="M18.061 1.62131C18.1448 1.64757 18.2276 1.6617 18.3003 1.69805C18.3417 1.71825 18.3872 1.77279 18.3902 1.8152C18.3943 1.85559 18.3508 1.92931 18.3175 1.93638C18.1297 1.97475 17.9378 1.99898 17.748 2.02423C17.6227 2.0414 17.4915 2.15349 17.3733 2.00505C17.2885 1.89801 17.4965 1.69502 17.7369 1.65564C17.8449 1.63847 17.955 1.63242 18.061 1.62131Z" fill="#939393"/>
</svg>
