<svg width="36" height="24" viewBox="0 0 36 24" fill="none" xmlns="http://www.w3.org/2000/svg">
<path d="M22.368 1.07617C22.3214 1.0679 22.2728 1.0472 22.2294 1.05445C22.1528 1.06893 22.1455 1.11757 22.218 1.14447C22.2583 1.15896 22.3121 1.14137 22.3587 1.13309C22.3649 1.13205 22.3649 1.09583 22.368 1.07617ZM31.9211 13.209C31.9563 13.2369 31.9904 13.2669 32.0277 13.2917C32.0297 13.2928 32.0732 13.2524 32.0691 13.2379C32.0598 13.1965 32.037 13.1583 32.0184 13.1189C31.9863 13.1489 31.9542 13.1779 31.9211 13.209ZM25.0822 1.58632C25.0026 1.50871 24.9074 1.44869 24.7915 1.46939C24.7252 1.48077 24.7066 1.55631 24.7625 1.5946C24.8256 1.63909 24.9094 1.65979 24.987 1.67324C25.0574 1.68566 25.0916 1.6453 25.0822 1.58632ZM28.0345 2.56419C27.9507 2.3862 27.9134 2.30963 27.8772 2.23202C27.6516 1.7405 27.2863 1.547 26.7565 1.7136C26.5713 1.77258 26.3581 1.70015 26.1305 1.86778C26.7151 2.18132 27.3381 2.29204 28.0345 2.56419ZM17.011 1.57597C17.1703 1.69083 17.3028 1.59253 17.4352 1.56769C17.7746 1.50457 18.1099 1.39178 18.4514 1.37316C19.3423 1.32349 20.2219 1.12171 21.119 1.18379C21.2039 1.18896 21.2939 1.17655 21.3746 1.15171C21.4171 1.13826 21.4709 1.07928 21.4729 1.03892C21.476 0.993393 21.4357 0.929237 21.3953 0.902332C20.8686 0.549473 20.3212 0.499804 19.7749 0.845419C19.3806 1.09584 19.0122 1.18069 18.5673 0.932341C18.2475 0.753323 17.8957 0.825758 17.6029 1.07825C17.4104 1.24484 17.2128 1.40627 17.011 1.57597ZM19.7738 20.1678C20.7103 20.3034 21.5681 20.1523 22.4115 19.8895C22.605 19.8295 22.6308 19.6546 22.606 19.4642C22.5657 19.162 22.338 18.9623 22.2076 18.7098C22.0824 18.4656 21.8755 18.4367 21.7482 18.6529C21.4357 19.1827 20.9142 19.4125 20.4061 19.6701C20.1826 19.7839 19.9425 19.875 19.7738 20.1678ZM3.06733 14.9081C3.0694 15.3085 3.02076 15.7131 3.15114 16.1032C3.1946 16.2315 3.32498 16.2957 3.42328 16.2305C4.02242 15.8321 4.5605 15.3613 5.01477 14.8004C5.11204 14.6804 5.12653 14.5252 5.02099 14.4041C4.6226 13.9416 4.15901 13.5629 3.58057 13.3445C3.39535 13.2752 3.24737 13.3507 3.17804 13.5463C3.01972 13.9902 3.0249 14.4476 3.06733 14.9081ZM32.8845 9.53549C32.2015 10.0477 31.5651 10.087 30.9494 10.1729C30.5635 10.2267 30.4714 10.3933 30.6856 10.7493C30.9205 11.1404 31.1657 11.5264 31.3913 11.9227C31.6779 12.4267 32.0546 12.5301 32.4902 12.1949C32.6817 12.0479 32.75 11.8244 32.7924 11.5968C32.9083 10.978 32.8462 10.3561 32.8845 9.53549ZM10.0904 20.8611C10.2021 20.8508 10.259 20.8477 10.316 20.8394C10.5302 20.8084 10.6522 20.5517 10.5219 20.3883C10.4153 20.2548 10.2963 20.1296 10.17 20.0137C9.7075 19.5894 9.24496 19.1641 8.76896 18.7523C8.58166 18.5898 8.48853 18.2607 8.19361 18.2928C7.93596 18.3218 7.7766 18.5764 7.58724 18.7461C7.33165 18.9747 7.08019 19.2086 6.84116 19.4549C6.61661 19.6867 6.64559 19.8791 6.92705 19.9743C7.65761 20.2217 8.36849 20.5311 9.13526 20.6635C9.4726 20.7225 9.80683 20.8022 10.0904 20.8611ZM26.2629 18.4242C26.2453 18.3518 26.2443 18.2897 26.2174 18.2421C25.996 17.8406 25.79 17.4288 25.5396 17.0459C25.2685 16.631 25.0181 16.5616 24.5907 16.7789C24.0568 17.0521 23.5363 17.3532 23.0189 17.6585C22.755 17.8137 22.7126 17.9669 22.843 18.2349C23.0054 18.5701 23.1927 18.892 23.3624 19.2231C23.4742 19.4425 23.647 19.4942 23.8643 19.4259C24.4924 19.2293 25.1205 19.0306 25.7455 18.8226C25.879 18.7781 26.0042 18.6964 26.1191 18.6136C26.1832 18.567 26.2205 18.4832 26.2629 18.4242ZM30.7001 9.43719C31.2764 9.3958 31.8507 9.33888 32.4012 9.15262C32.7117 9.04914 32.8027 8.88048 32.7406 8.56177C32.662 8.15613 32.4074 7.83018 32.2439 7.46386C32.0473 7.02305 31.7038 6.86783 31.263 6.95061C30.6669 7.06237 30.0709 7.14929 29.4656 7.1793C29.3248 7.18654 29.1862 7.24656 29.0506 7.29519C28.8457 7.36763 28.7702 7.52802 28.8747 7.69773C29.2079 8.23581 29.5494 8.76872 29.8929 9.3006C29.9778 9.43098 30.1164 9.47548 30.2696 9.4672C30.4134 9.45892 30.5573 9.44753 30.7001 9.43719ZM12.2872 9.48582C12.2758 9.43098 12.281 9.36475 12.251 9.32336C11.9085 8.85357 11.4821 8.46967 11.0061 8.14164C10.8809 8.05576 10.7412 8.06714 10.5974 8.1344C9.76027 8.52555 9.01937 9.07191 8.26709 9.59551C7.98977 9.78798 7.77867 10.0798 7.54998 10.3364C7.46927 10.4275 7.46514 10.5568 7.56344 10.6479C7.85732 10.9211 8.15844 11.187 8.45852 11.454C8.70377 11.6733 8.919 11.6682 9.22426 11.4892C10.138 10.9531 10.942 10.235 11.9457 9.848C12.0482 9.80867 12.133 9.71658 12.2148 9.6369C12.2531 9.60068 12.2644 9.53756 12.2872 9.48582ZM4.88336 9.95975C4.69917 9.96078 4.54395 10.0208 4.45496 10.1926C4.28215 10.5216 4.10211 10.8476 3.94689 11.186C3.82892 11.4457 3.72751 11.7158 3.64886 11.99C3.56298 12.2859 3.6199 12.5457 3.89308 12.7485C4.39805 13.1241 4.88646 13.5204 5.38729 13.9023C5.73084 14.1651 5.7298 14.1527 6.13233 13.8929C6.81011 13.4563 7.34924 12.852 7.98563 12.3646C8.00839 12.348 8.02495 12.3222 8.04047 12.2984C8.09117 12.2218 8.10255 12.1349 8.04667 12.0635C7.95872 11.9507 7.87284 11.8275 7.76005 11.7458C6.99535 11.1922 6.22546 10.6458 5.45455 10.1026C5.28692 9.98459 5.09239 9.93181 4.88336 9.95975ZM26.3033 11.0028C26.2722 10.8931 26.2629 10.8041 26.2226 10.7327C26.0653 10.4513 25.8263 10.2402 25.5851 10.0353C25.2116 9.71761 24.8091 9.43201 24.4603 9.09054C24.0847 8.72112 23.7236 8.71802 23.3004 8.97775C23.1058 9.09675 22.8823 9.16918 22.6722 9.26127C22.1186 9.50341 21.5619 9.73831 21.0135 9.98976C20.819 10.0798 20.7941 10.266 20.9297 10.4151C21.4129 10.948 21.8972 11.4788 22.3825 12.0096C22.4787 12.1152 22.5843 12.2145 22.6816 12.3201C22.8575 12.5115 23.0572 12.5591 23.3045 12.4567C23.8353 12.2352 24.3765 12.0376 24.9043 11.8068C25.2985 11.634 25.6803 11.4302 26.0611 11.2274C26.1563 11.1767 26.2257 11.0773 26.3033 11.0028ZM18.2061 15.0695C18.2237 14.8739 18.1213 14.7684 18.0178 14.669C17.4342 14.1082 16.7554 13.6663 16.118 13.1727C15.94 13.0351 15.7537 13.0558 15.5457 13.0993C14.2709 13.3662 13.1988 14.0275 12.192 14.8139C12.0151 14.9515 12.0057 15.0674 12.1641 15.2537C12.8139 16.0194 13.6138 16.6517 14.1405 17.5271C14.2305 17.6782 14.4251 17.7227 14.6061 17.6451C14.7903 17.5654 14.9838 17.4919 15.1473 17.3781C15.9524 16.8224 16.7512 16.2564 17.548 15.6883C17.7353 15.5548 17.9123 15.4068 18.0851 15.2547C18.1451 15.2019 18.1772 15.1161 18.2061 15.0695ZM13.9987 21.0867L13.9998 21.1012C14.4023 21.0785 14.81 21.0867 15.2063 21.0205C15.4971 20.9719 15.9317 21.0722 16.03 20.7121C16.1107 20.4203 15.7423 20.2465 15.5478 20.0468C14.7241 19.2003 13.8942 18.3704 13.2071 17.3946C12.7818 16.7914 12.1837 16.305 11.6384 15.7918C11.3621 15.531 11.152 15.5558 10.8789 15.8031C10.3015 16.3247 9.72509 16.8483 9.15493 17.377C8.93349 17.5819 8.90969 17.7403 9.038 17.9917C9.1839 18.2773 9.38879 18.5153 9.62265 18.7357C10.229 19.309 10.8633 19.845 11.5142 20.3696C12.1144 20.8539 12.7197 21.1323 13.4803 21.0878C13.6521 21.0785 13.8259 21.0867 13.9987 21.0867ZM19.4872 1.9071C19.6497 2.32515 19.8649 2.63248 20.1277 2.88186C20.5965 3.32682 20.7413 3.97149 21.1542 4.44748C21.2774 4.58821 21.2018 4.78275 21.0683 4.9152C20.968 5.01558 20.7113 4.97626 20.6068 4.82725C20.4764 4.64099 20.3854 4.42679 20.2654 4.23328C20.0967 3.96321 19.9125 3.89491 19.6052 3.98494C19.4675 4.02529 19.3309 4.07496 19.2016 4.13809C18.5538 4.45369 17.875 4.68548 17.19 4.90796C16.7264 5.05904 16.2835 5.27427 15.8365 5.47295C15.6585 5.55056 15.643 5.76579 15.8013 5.89824C16.1324 6.17556 16.4739 6.44047 16.804 6.71779C17.1124 6.97648 17.1993 6.93302 17.488 6.76332C18.7101 6.04725 19.9839 5.43156 21.3674 5.10146C22.3722 4.86243 23.3335 4.42575 24.3889 4.40609C25.6379 4.03461 26.9262 3.90009 28.2135 3.75211C28.288 3.74383 28.317 3.70244 28.2983 3.61759C28.0448 3.28129 27.6237 3.21196 27.2718 3.02984C26.4461 2.60351 25.5872 2.48968 24.6983 2.84047C24.4914 2.92118 24.4303 3.07019 24.5597 3.23576C24.6828 3.39408 24.8246 3.53895 24.9477 3.69831C25.0243 3.79661 25.0274 3.91975 24.9508 4.01702C24.8442 4.15154 24.7014 4.13705 24.5628 4.06358C24.5131 4.03668 24.4603 4.00667 24.4221 3.96528C23.7991 3.28853 22.9599 2.8322 22.4529 2.03542C22.2977 1.79431 22.0586 1.7167 21.7782 1.73843C21.0363 1.79535 20.2943 1.84812 19.4872 1.9071ZM27.009 18.178C27.1787 18.1035 27.4271 18.0196 27.6495 17.8934C28.5281 17.3936 29.3693 16.8348 30.1361 16.1767C30.5955 15.7814 31.0167 15.3447 31.2847 14.786C31.3965 14.5531 31.56 14.3369 31.6293 14.0937C31.6997 13.8505 31.4037 13.7243 31.3437 13.4956C31.1264 12.6802 30.6928 11.961 30.2644 11.2429C29.985 10.7721 29.687 10.3105 29.4438 9.82213C29.0682 9.06467 28.5891 8.39413 27.9941 7.79396C27.7851 7.58286 27.5947 7.49491 27.3101 7.57769C26.5651 7.79499 25.8149 7.99781 25.0698 8.21408C24.8639 8.2741 24.8091 8.47381 24.9612 8.6135C25.193 8.82874 25.4403 9.02742 25.6814 9.2323C26.4761 9.91215 27.1849 10.6737 27.6433 11.6185C28.0086 12.3698 28.3697 13.122 28.7764 13.8526C29.1117 14.4569 29.4149 15.0788 29.7305 15.6945C29.7698 15.7711 29.8081 15.8497 29.8329 15.9315C29.8702 16.0546 29.8308 16.1695 29.7087 16.2098C29.6404 16.2326 29.5297 16.215 29.4728 16.1715C29.1686 15.9346 29.0382 15.5683 28.8292 15.2599C28.6429 14.9857 28.5415 14.9422 28.2569 15.0788C27.5305 15.4296 26.8186 15.8083 26.0529 16.0722C25.7642 16.1715 25.6897 16.3619 25.8252 16.6155C26.0849 17.0956 26.3664 17.5643 26.6448 18.0331C26.7048 18.1335 26.8031 18.1997 27.009 18.178ZM17.935 2.09233C17.5346 2.03955 17.1755 2.12544 16.8175 2.25582C16.4936 2.37275 16.1645 2.5021 15.8262 2.55073C15.4795 2.60144 15.1608 2.70078 14.8328 2.81771C13.8849 3.15711 12.906 3.41374 12.0399 3.95183C9.70129 4.84587 7.73521 6.28835 6.09405 8.14992C5.10584 9.27162 5.21035 8.98395 6.33929 9.93905C6.69422 10.2402 6.85461 10.1895 7.23955 9.85317C8.63339 8.6342 10.1556 7.59632 11.7812 6.71675C13.0488 6.03173 14.3505 5.41707 15.7247 4.96384C16.8733 4.58511 17.9361 3.9839 19.1054 3.64967C19.6145 3.50377 19.6434 3.35476 19.3123 2.92636C19.2068 2.78977 19.0878 2.66352 18.976 2.53107C18.6977 2.20408 18.3686 2.00127 17.935 2.09233ZM31.5372 6.03276C31.5268 5.97999 31.5258 5.91998 31.502 5.86927C31.1254 5.03627 29.954 4.19603 29.1075 4.30468C28.4867 4.38436 27.8544 4.33573 27.2335 4.50647C26.8227 4.61926 26.3809 4.61719 25.9535 4.671C25.7259 4.69997 25.4972 4.72688 25.2737 4.77758C24.0454 5.05593 22.8306 5.40466 21.5743 5.55263C21.4895 5.56194 21.4026 5.5816 21.3239 5.61368C20.3368 6.00793 19.3506 6.40425 18.3665 6.80471C18.1203 6.90508 17.934 7.08513 17.7757 7.29519C17.697 7.40074 17.6981 7.52285 17.7767 7.61287C18.0954 7.98022 18.3903 8.38378 18.7649 8.68387C19.0754 8.93325 19.421 9.14538 19.72 9.41546C19.9601 9.63173 20.1991 9.66381 20.5085 9.53135C21.6447 9.04604 22.7892 8.57832 23.9367 8.11888C25.3782 7.54147 26.8424 7.03029 28.379 6.76849C29.2576 6.61845 30.1413 6.50152 31.0229 6.36803C31.1357 6.35148 31.2547 6.34527 31.3592 6.30388C31.4679 6.26042 31.5424 6.16832 31.5372 6.03276ZM18.9874 14.6442C19.2399 14.639 19.4148 14.5314 19.57 14.4093C20.0946 13.9975 20.672 13.6829 21.2805 13.418C21.4636 13.3373 21.6323 13.2234 21.8061 13.121C22.1404 12.9244 22.189 12.7899 21.9696 12.5219C21.3322 11.7427 20.6451 11.0049 19.8494 10.3882C19.0764 9.79005 18.2941 9.21678 17.6442 8.47381C16.8847 7.60666 15.9896 6.88335 15.0811 6.17763C14.8203 5.97585 14.5906 5.93756 14.2947 6.09071C13.7856 6.35562 13.2568 6.58223 12.7466 6.84403C12.4662 6.98683 12.2003 7.16171 11.9354 7.33452C11.7295 7.468 11.7067 7.64495 11.8712 7.8457C12.0347 8.04541 12.2096 8.23684 12.3927 8.41897C13.0436 9.0657 13.6676 9.74141 14.2895 10.412C15.1918 11.3867 16.1883 12.2487 17.2003 13.0951C17.7281 13.537 18.3251 13.894 18.7349 14.4672C18.796 14.5531 18.917 14.5966 18.9874 14.6442ZM5.81984 19.3235C6.10751 19.338 6.27617 19.219 6.42932 19.0896C6.8453 18.7357 7.26438 18.3829 7.6607 18.0083C8.41299 17.2974 9.24495 16.6796 9.97551 15.9408C10.704 15.205 11.5101 14.5449 12.4176 14.0306C13.1419 13.6187 13.8259 13.1334 14.6061 12.8219C14.7117 12.7795 14.81 12.7154 14.9052 12.6512C15.108 12.5146 15.137 12.3522 14.9797 12.14C14.4271 11.396 13.7597 10.7658 13.025 10.204C12.8698 10.085 12.7166 10.0963 12.5387 10.1346C12.1092 10.2278 11.7264 10.4244 11.3549 10.6448C11.033 10.8352 10.7185 11.038 10.407 11.2449C10.0966 11.4509 9.81408 11.7137 9.47984 11.87C9.14768 12.0252 9.31325 12.6212 8.73792 12.5715C8.36746 12.5395 8.086 12.8954 7.80247 13.1386C7.12779 13.7181 6.42415 14.2613 5.76913 14.8687C5.11722 15.4731 4.40115 15.9904 3.94275 16.7862C3.66646 17.2632 3.62921 17.2322 3.87548 17.6523C4.26663 18.3187 4.82748 18.7999 5.49077 19.1724C5.61391 19.2417 5.74947 19.2914 5.81984 19.3235ZM17.5159 20.738C17.5273 20.738 17.6784 20.6625 17.8212 20.5569C18.052 20.3862 18.2837 20.2154 18.5207 20.053C19.3537 19.4859 20.2126 18.9509 21.0187 18.3477C21.8506 17.7247 22.7085 17.1494 23.6304 16.6724C24.6011 16.1705 25.5458 15.619 26.5847 15.2537C27.0442 15.0923 27.484 14.8656 27.9124 14.6307C28.2404 14.4517 28.2694 14.2572 28.0976 13.9105C27.8296 13.3693 27.5595 12.8282 27.2884 12.288C27.2367 12.1845 27.1849 12.081 27.1249 11.9838C26.9273 11.6609 26.8248 11.6309 26.4958 11.782C26.235 11.901 25.9711 12.0159 25.7083 12.1297C24.6797 12.5757 23.6098 12.912 22.5926 13.3952C21.4978 13.9157 20.4144 14.4383 19.4272 15.1471C19.1944 15.3137 18.9377 15.4482 18.6966 15.6034C18.382 15.8063 18.0654 16.006 17.7612 16.2233C17.011 16.7593 16.268 17.3046 15.5219 17.8458C15.3584 17.9648 15.1867 18.0735 15.0376 18.2069C14.989 18.2504 14.9756 18.3653 14.99 18.4377C15.0066 18.5163 15.0687 18.5898 15.1225 18.656C15.6834 19.3483 16.4791 19.8171 16.953 20.5952C17.0296 20.7215 17.1993 20.7297 17.5159 20.738ZM11.0134 3.61449C11.3725 3.6238 11.6788 3.46445 11.9861 3.31026C12.7808 2.91084 13.5962 2.56833 14.4644 2.35723C14.7138 2.29618 14.9518 2.19374 15.1939 2.10475C15.2736 2.07577 15.3636 2.04576 15.4195 1.98781C15.4712 1.93401 15.5167 1.83363 15.5023 1.76948C15.4857 1.70118 15.4009 1.61115 15.3346 1.59977C14.8286 1.51389 14.364 1.65255 13.9594 1.94642C13.5765 2.22478 13.1813 2.41311 12.6939 2.38931C12.4228 2.37482 12.2075 2.50831 12.0213 2.71112C11.8878 2.85599 11.7274 2.98845 11.5546 3.08158C11.3135 3.20989 11.1593 3.40443 11.0217 3.62483C10.7961 3.62897 10.5695 3.6445 10.3439 3.63311C10.0314 3.61863 9.80683 3.74073 9.62989 3.99735C9.47053 4.22811 9.28117 4.43921 9.10422 4.65858C8.51233 4.6265 8.02805 4.81794 7.71451 5.34671C7.57482 5.58367 7.35441 5.71095 7.11537 5.81857C6.87841 5.92411 6.64249 6.03173 6.40966 6.14452C6.0092 6.33802 5.67807 6.59879 5.51975 7.03754C5.38937 7.39867 5.16275 7.69152 4.8699 7.93779C4.5067 8.24305 4.30078 8.63316 4.19627 9.29542C4.63294 8.8484 4.95786 8.5421 5.2269 8.1789C5.97091 7.17516 6.85875 6.32457 7.89767 5.62713C8.32504 5.33946 8.76896 5.06318 9.09491 4.6472C9.74993 4.33262 10.4277 4.05737 11.0134 3.61449ZM23.9854 2.05611C24.0019 2.07474 24.0154 2.09854 24.0361 2.11199C24.0506 2.1213 24.0733 2.11716 24.093 2.11923C24.0537 2.10164 24.0144 2.08508 23.975 2.06749C23.9367 2.03541 23.9016 2.00023 23.8602 1.97333C23.8415 1.96195 23.8022 1.9547 23.7888 1.96608C23.7391 2.00437 23.7577 2.03645 23.8343 2.04576C23.884 2.05094 23.9347 2.05301 23.9854 2.05611ZM28.4484 2.83116C29.1479 3.13331 29.627 3.51308 30.253 3.56275C30.4362 3.57723 30.5893 3.64656 30.6783 3.8142C30.7766 3.99839 30.9174 4.13705 31.0964 4.23949C31.9418 4.71963 32.3174 5.51434 32.5151 6.41253C32.5668 6.64742 32.6113 6.85542 32.81 7.00753C33.1018 7.23207 33.2539 7.57148 33.3056 7.89744C33.4474 8.79873 33.7951 9.68243 33.5736 10.6241C33.5219 10.8435 33.5509 11.0835 33.5488 11.3143C33.5436 11.813 33.4536 12.287 33.169 12.7123C33.0738 12.854 32.9962 13.0134 32.9352 13.1738C32.5296 14.2396 31.8528 15.1367 31.1605 16.0236C31.0571 16.157 30.9091 16.2574 30.7797 16.3712C29.8898 17.1546 28.8964 17.7899 27.8875 18.4046C27.5999 18.5795 27.2377 18.6602 27.0711 19.011C27.0442 19.0689 26.9148 19.1289 26.8548 19.1113C26.473 19.0016 26.177 19.2376 25.8749 19.37C24.8432 19.8233 23.7567 20.1058 22.6847 20.4348C21.8237 20.6977 20.9328 20.7887 20.0356 20.7773C19.5658 20.7701 19.1157 20.7856 18.7184 21.0847C18.4804 21.2637 18.1917 21.3144 17.8988 21.3175C17.3762 21.3216 16.8692 21.4437 16.3549 21.5079C15.0997 21.6652 13.8456 21.8535 12.5697 21.6931C11.9995 21.6207 11.4201 21.6186 10.8447 21.5814C9.83478 21.5151 8.82587 21.3723 7.87491 21.0474C6.90325 20.7152 5.8933 20.4214 5.07686 19.7394C5.01063 19.6846 4.94234 19.6246 4.86473 19.5925C4.0783 19.2686 3.57333 18.6571 3.13769 17.9576C2.98144 17.7071 2.89452 17.4433 2.79311 17.1742C2.41749 16.1829 2.29745 15.1543 2.39885 14.1144C2.48784 13.1976 2.76 12.3118 3.10354 11.4519C3.25255 11.0773 3.39742 10.7017 3.53711 10.324C3.5547 10.2785 3.52262 10.2164 3.51434 10.1615C2.93383 10.4896 2.58822 10.8631 2.40093 11.3784C2.31297 11.6226 2.2602 11.8813 2.14948 12.1142C1.95804 12.5157 1.80593 12.9016 2.03565 13.3445C2.1205 13.507 2.05531 13.6819 1.94355 13.8298C1.84007 13.9674 1.73349 14.104 1.63726 14.2479C1.51309 14.4321 1.48204 14.6411 1.63519 14.8087C1.88457 15.0788 1.82249 15.3271 1.63726 15.5848C1.44893 15.8487 1.3765 16.157 1.28026 16.4602C1.14367 16.8866 1.3051 17.1877 1.62691 17.4381C1.69417 17.4909 1.77385 17.5302 1.85249 17.5664C2.09153 17.6751 2.18983 17.8717 2.19397 18.12C2.20432 18.7347 2.48371 19.16 3.06111 19.3804C3.30842 19.4756 3.37465 19.6722 3.43053 19.9133C3.63749 20.8001 4.05968 21.1085 4.96097 21.0702C5.04686 21.066 5.13274 21.0547 5.21863 21.0391C5.47008 20.9946 5.68221 21.0474 5.7981 21.2958C5.9647 21.6548 6.26892 21.7811 6.6342 21.8121C7.00672 21.8442 7.37925 21.8742 7.75073 21.9135C7.8004 21.9177 7.88732 21.9797 7.88215 22.0004C7.86559 22.077 7.83558 22.165 7.7797 22.2136C7.71969 22.2674 7.62863 22.2985 7.54585 22.3109C7.11434 22.3719 6.68181 22.3481 6.25237 22.2964C6.01955 22.2684 5.79811 22.1722 5.63358 22.0087C5.32521 21.7035 4.9796 21.5689 4.54189 21.6207C4.11349 21.6714 3.76166 21.4706 3.43673 21.2119C3.22564 21.0433 3.05284 20.8508 3.01662 20.5797C2.95867 20.1461 2.73308 19.8543 2.37091 19.6122C1.9808 19.3514 1.68176 18.9985 1.63726 18.4936C1.61553 18.2483 1.49549 18.0507 1.29474 17.9172C0.542458 17.4174 0.541425 16.7262 0.862207 16.0111C1.0495 15.5941 1.15816 15.2309 0.980176 14.7798C0.860141 14.4745 0.987417 14.1496 1.17989 13.8826C1.32475 13.6808 1.37235 13.4728 1.32061 13.2317C1.24507 12.8778 1.362 12.5529 1.4572 12.2176C1.73866 11.2139 2.2633 10.3726 3.07043 9.71554C3.35085 9.48789 3.52573 9.20954 3.63128 8.86599C3.79478 8.33411 4.0545 7.85812 4.51498 7.51457C4.68158 7.3904 4.79954 7.22069 4.85542 7.02408C5.0572 6.31422 5.62012 5.95309 6.21926 5.66128C6.66628 5.44191 7.06364 5.20184 7.39373 4.81483C7.65243 4.51267 8.00012 4.27571 8.40471 4.17741C8.69756 4.10704 8.92728 3.97045 9.11044 3.72211C9.42915 3.2906 9.85444 3.03294 10.3894 2.90256C10.9182 2.77425 11.4345 2.57039 11.7771 2.09543C11.9633 1.83881 12.2334 1.73843 12.5335 1.75395C13.0157 1.77879 13.4244 1.63185 13.8239 1.36177C14.4044 0.967522 15.048 0.861975 15.7134 1.14964C16.0662 1.30176 16.387 1.25519 16.6995 1.06272C16.8713 0.957176 17.0327 0.836105 17.2024 0.728489C17.7312 0.393221 18.2837 0.174881 18.917 0.408741C19.1519 0.494627 19.3682 0.454271 19.5834 0.346655C19.7376 0.269045 19.897 0.198681 20.0574 0.135561C20.5416 -0.0569077 21.0311 -0.0600147 21.4678 0.227655C21.7761 0.430471 22.0917 0.465656 22.4425 0.498768C23.0417 0.556717 23.6346 0.635357 24.2389 0.667437C24.7377 0.695375 25.2426 0.924063 25.7093 1.1393C26.0487 1.29451 26.3592 1.33383 26.7089 1.25209C26.8765 1.2138 27.0504 1.19724 27.2222 1.18276C27.6247 1.15068 27.9714 1.25209 28.1762 1.63288C28.3439 1.94539 28.6088 2.06439 28.9492 2.10164C29.2048 2.12958 29.4697 2.18339 29.7025 2.2879C30.1289 2.47933 30.5624 2.58178 31.0312 2.61696C31.651 2.66353 32.1125 3.01535 32.3868 3.56378C32.6392 4.06565 32.931 4.49094 33.465 4.74757C33.8841 4.94935 34.0652 5.35291 34.0714 5.82167C34.0724 5.96551 34.0734 6.11037 34.0631 6.25317C34.0445 6.49841 34.1148 6.69916 34.2928 6.87715C34.6953 7.27761 34.8412 7.74739 34.6343 8.2979C34.5443 8.54004 34.596 8.74389 34.7771 8.92911C34.9199 9.07605 35.0596 9.25817 35.0399 9.45892C34.9954 9.90387 35.1362 10.3033 35.249 10.7182C35.4228 11.3598 35.3711 11.9765 34.9116 12.5094C34.8154 12.6202 34.7419 12.765 34.7947 12.9078C34.9727 13.388 34.7036 13.7419 34.478 14.1092C34.388 14.2562 34.3042 14.4165 34.1821 14.5335C33.823 14.8729 33.5074 15.234 33.377 15.7276C33.3563 15.8063 33.2984 15.887 33.2353 15.9418C32.8348 16.2864 32.5399 16.6682 32.4695 17.2322C32.4302 17.5426 32.127 17.7578 31.8114 17.8665C31.502 17.972 31.2599 18.1376 31.0643 18.4139C30.8449 18.7254 30.5169 18.9396 30.1433 19.0223C29.8402 19.0896 29.6146 19.2076 29.4707 19.4932C29.3031 19.8264 29.0123 19.9826 28.6429 20.0437C28.2756 20.1047 27.9175 20.2165 27.5543 20.3044C27.2656 20.3748 27.0287 20.5228 26.8196 20.7359C26.4244 21.1385 25.9618 21.4137 25.3751 21.423C25.134 21.4261 24.9322 21.5275 24.7418 21.6683C24.481 21.8618 24.181 21.9942 23.8602 21.986C23.3759 21.9725 22.9651 22.137 22.5563 22.3668C22.1973 22.5696 21.7834 22.5872 21.3829 22.6337C21.3012 22.6441 21.1884 22.6451 21.1325 22.5985C20.7548 22.2809 20.3781 22.4682 19.9994 22.5789C19.6403 22.6844 19.2906 22.8272 18.9077 22.8324C18.7308 22.8345 18.5787 22.9162 18.4203 22.9907C18.1089 23.1377 17.7891 23.2691 17.4652 23.3891C17.0172 23.5536 16.567 23.6157 16.148 23.3012C15.9079 23.1211 15.6585 23.1273 15.4267 23.2929C14.8679 23.6882 14.2616 23.7523 13.6117 23.6033C13.4151 23.5578 13.1926 23.5081 13.0281 23.6488C12.6111 24.0038 12.0937 23.892 11.6218 23.9841C11.3259 24.041 11.032 23.9396 10.8033 23.7668C10.3811 23.4502 9.94033 23.3612 9.42604 23.4584C8.86519 23.564 8.4906 23.2711 8.24018 22.7931C8.20086 22.7186 8.1843 22.6296 8.17085 22.5458C8.15222 22.4247 8.18534 22.3067 8.28779 22.2415C8.43783 22.1443 8.59201 22.2074 8.65099 22.3471C8.92417 22.9928 9.42397 23.0538 10.0086 22.8924C10.2518 22.8252 10.4515 22.8624 10.6574 23.0083C10.8437 23.1397 11.0444 23.266 11.2576 23.3436C11.745 23.5205 12.2313 23.5236 12.6297 23.1356C12.9401 22.8334 13.2589 22.7703 13.6479 22.9617C14.2978 23.2825 14.8835 23.1335 15.4019 22.6699C15.6244 22.4713 15.8355 22.3874 16.0828 22.6089C16.7533 23.2111 17.4466 22.998 18.0582 22.5675C18.4576 22.286 18.8229 22.0987 19.3165 22.137C19.6724 22.165 19.9787 22.0035 20.2622 21.778C20.6079 21.5027 20.6451 21.5058 20.9328 21.7097C21.1656 21.8752 21.3612 22.1029 21.6964 22.0284C22.1155 21.9352 22.5657 21.9146 22.8337 21.4986C23.0013 21.2378 23.23 21.1985 23.5104 21.2916C23.973 21.4458 24.3651 21.3237 24.6683 20.9481C24.8722 20.6966 25.106 20.618 25.4299 20.6852C25.938 20.7908 26.3447 20.6211 26.5651 20.1265C26.7131 19.7922 26.9345 19.636 27.3101 19.695C27.8937 19.7881 28.3449 19.3887 28.8613 19.2345C29.1282 19.1538 29.1241 18.7295 29.4118 18.5991C29.6798 18.4781 29.9871 18.6498 30.2499 18.4636C30.4434 18.327 30.64 18.1966 30.6783 17.9493C30.7342 17.5933 30.9556 17.4712 31.2826 17.466C31.3406 17.466 31.3996 17.4691 31.4555 17.4578C31.8621 17.3802 32.0184 17.227 31.9811 16.8183C31.9521 16.4964 31.9842 16.274 32.2978 16.1043C32.7313 15.8704 33.0024 15.5207 32.9104 14.9805C32.8824 14.818 32.9869 14.6928 33.139 14.6608C33.6554 14.5552 33.8799 14.1516 34.119 13.7512C34.2504 13.5297 34.2721 13.329 34.1231 13.1086C33.9493 12.8499 34.0124 12.6202 34.2328 12.4173C34.4439 12.2218 34.6902 12.0448 34.7026 11.722C34.7181 11.3236 34.7967 10.9097 34.5122 10.5589C34.3497 10.3581 34.3425 10.1398 34.4253 9.90698C34.5308 9.6131 34.4232 9.40615 34.1655 9.25507C34.0662 9.19712 33.9648 9.13607 33.8851 9.05535C33.7754 8.9467 33.7485 8.8039 33.8158 8.65903C33.851 8.58143 33.9068 8.51313 33.9482 8.43759C34.27 7.84363 34.2587 7.56424 33.7537 7.16585C33.4764 6.94751 33.4164 6.75194 33.495 6.4353C33.5426 6.2449 33.5302 6.0338 33.5157 5.83409C33.4919 5.52365 33.3429 5.28876 33.0366 5.17597C32.929 5.13665 32.8193 5.10043 32.7117 5.058C32.4881 4.96798 32.3184 4.82518 32.246 4.58304C32.2036 4.44542 32.155 4.30779 32.0929 4.17844C31.8083 3.58655 31.3841 3.19644 30.6783 3.25335C30.2323 3.28853 29.836 3.2192 29.4738 2.91498C29.2555 2.73079 28.9554 2.67698 28.4484 2.83116Z" fill="#939393"/>
</svg>
