<svg width="30" height="24" viewBox="0 0 30 24" fill="none" xmlns="http://www.w3.org/2000/svg">
<path d="M20.5685 10.9726C20.5519 10.6186 20.451 10.2714 20.2827 9.95528C19.8264 9.09715 19.2738 8.30042 18.6506 7.55524C18.3997 7.2558 18.314 7.26945 18.0593 7.56661C18.004 7.63104 17.9524 7.69776 17.9009 7.76447C17.18 8.69689 16.4591 9.63007 15.7381 10.564C15.7131 10.5974 15.6911 10.633 15.6646 10.6663C15.541 10.8172 15.5433 10.9703 15.6487 11.1303C16.0315 11.7148 16.4583 12.2621 17.0124 12.6934C17.3475 12.9542 17.7129 13.1702 18.1632 13.1528C18.5453 13.1376 18.922 13.08 19.27 12.9186C20.091 12.5373 20.5276 11.8914 20.5685 10.9726ZM6.28579 9.94164C6.11523 10.5375 6.32521 11.0734 6.66482 11.5851C6.76868 11.7413 6.81644 11.9338 6.90968 12.0983C7.57678 13.2741 8.29694 14.4127 9.1528 15.4649C9.96469 16.4625 10.929 17.2638 12.0661 17.8574C12.2131 17.9347 12.3784 17.9817 12.5398 18.0287C13.232 18.2319 13.9476 18.316 14.6602 18.3865C15.3182 18.4525 15.9519 18.3357 16.5728 18.0681C17.327 17.7437 17.9502 17.26 18.5271 16.6937C19.3283 15.9069 20.0114 15.0199 20.6921 14.1322C21.6829 12.8405 22.6206 11.5154 23.3529 10.0538C23.6296 9.5012 23.8313 8.93265 23.9359 8.32165C24.064 7.57419 23.9586 6.90937 23.4484 6.30898C23.036 5.82457 22.5524 5.55243 21.9141 5.57365C21.598 5.58426 21.2804 5.59109 20.9658 5.61989C20.1683 5.69191 19.5497 6.13159 18.966 6.62964C18.8394 6.73728 18.8447 6.90255 18.9705 7.02308C19.6687 7.68866 20.1122 8.53542 20.6186 9.33594C20.8937 9.77183 21.0401 10.2638 21.078 10.7725C21.1363 11.5503 20.8733 12.2348 20.3153 12.7738C19.9348 13.1422 19.4731 13.4015 18.9592 13.5652C18.0813 13.8464 17.2997 13.6857 16.5902 13.1073C16.0785 12.6911 15.6638 12.1885 15.2674 11.6685C15.1643 11.5328 15.0566 11.5268 14.9596 11.6503C14.8428 11.8004 14.742 11.9634 14.6177 12.1067C14.1053 12.698 13.5845 13.2802 12.7991 13.5273C12.6816 13.5637 12.5732 13.6395 12.4724 13.7138C12.035 14.036 11.5551 14.089 11.0305 13.9965C10.4461 13.8934 10.0519 13.5508 9.70695 13.0975C9.17251 12.3955 9.03833 11.6594 9.43328 10.8513C9.48938 10.7369 9.53714 10.6193 9.59626 10.5079C9.76456 10.1918 9.94119 9.88024 10.1065 9.5626C10.3794 9.03726 10.6621 8.51874 11.0002 8.03206C11.1329 7.84179 11.264 7.64924 11.3777 7.44683C11.5346 7.16559 11.5119 6.97532 11.3057 6.75548C10.6651 6.07321 9.84719 5.75786 8.93826 5.69115C8.49404 5.6578 8.06043 5.7753 7.69428 6.0717C6.98624 6.64404 6.60569 7.41803 6.42679 8.27692C6.31687 8.80832 6.21377 9.35717 6.28579 9.94164ZM21.8785 5.07105C22.0475 5.07105 22.2173 5.08015 22.3856 5.06878C22.7684 5.04452 23.0785 5.19007 23.3681 5.43037C23.6493 5.66386 23.8434 5.96557 24.0738 6.23999C24.3149 6.52654 24.4233 6.85782 24.4551 7.22624C24.5363 8.17307 24.4089 9.07668 23.9442 9.92041C23.8222 10.1418 23.7251 10.3775 23.6069 10.6012C23.5182 10.7687 23.4363 10.9483 23.3105 11.0856C23.0353 11.3865 22.8533 11.7428 22.6532 12.09C22.5168 12.328 22.3864 12.5714 22.2264 12.7935C21.2493 14.1451 20.2865 15.5081 19.1358 16.7256C18.6097 17.2828 18.0737 17.8111 17.3574 18.1219C17.1064 18.2303 16.8714 18.3782 16.6213 18.4881C16.1391 18.7003 15.6585 18.8982 15.1226 18.9733C14.6867 19.0347 14.2826 18.9285 13.8665 18.8891C12.8196 18.789 11.8417 18.4828 10.9684 17.8771C10.4658 17.5276 9.94271 17.1979 9.51895 16.7551C9.05198 16.2685 8.59562 15.7636 8.19991 15.2193C7.50552 14.2634 6.84449 13.2809 6.31232 12.2211C6.10385 11.8065 5.92571 11.3789 5.84308 10.9142C5.6437 9.7923 5.73619 8.69461 6.04396 7.59997C6.235 6.9215 6.59204 6.37265 7.12118 5.92312C7.31448 5.75938 7.51007 5.59867 7.7064 5.43796C7.89137 5.28634 8.10439 5.19993 8.34394 5.18855C9.33398 5.14307 10.2846 5.26209 11.1162 5.86551C11.2526 5.96406 11.3846 6.07019 11.5165 6.17632C11.9683 6.54095 12.082 6.52654 12.4095 6.06184C12.4337 6.02697 12.4504 5.98756 12.4739 5.95269C12.9158 5.30757 13.42 4.71248 13.9392 4.12877C14.0931 3.95593 14.2372 3.77324 14.3774 3.58903C14.4782 3.45637 14.479 3.31537 14.3653 3.18422C14.3243 3.13646 14.2849 3.08491 14.2372 3.04473C13.4958 2.41478 12.7536 1.78862 11.7613 1.58091C11.5968 1.5468 11.4353 1.48918 11.2784 1.42778C10.2065 1.01008 9.1058 0.956264 7.97552 1.11015C7.28568 1.2034 6.67392 1.46114 6.11144 1.84927C5.74756 2.10095 5.39506 2.37082 5.04786 2.64524C4.41563 3.14405 3.85618 3.70729 3.4021 4.38349C3.01094 4.96568 2.72817 5.60019 2.39841 6.21195C2.19829 6.5834 2.07927 6.98972 2.00119 7.40741C1.93145 7.78038 1.83518 8.1488 1.76013 8.52177C1.64642 9.08047 1.53801 9.63993 1.49708 10.2108C1.43946 10.9954 1.44098 11.7716 1.75937 12.5168C1.84124 12.7078 1.86323 12.9246 1.91932 13.1278C2.03758 13.5561 2.18767 13.9776 2.43405 14.3452C2.71605 14.7645 3.05263 15.1473 3.35282 15.5544C3.69016 16.0115 4.12681 16.3867 4.3982 16.9015C4.54375 17.1774 4.74691 17.4329 4.96524 17.658C5.62703 18.3387 6.26532 19.0445 7.02187 19.6275C7.23792 19.7942 7.42137 20.0027 7.62226 20.1884C7.88607 20.4325 8.12941 20.7054 8.42051 20.9094C9.26727 21.5022 10.0738 22.1496 10.9661 22.681C12.0251 23.3117 13.1607 23.5345 14.3668 23.4208C15.0172 23.3587 15.6593 23.2154 16.3082 23.1358C16.8426 23.0706 17.3308 22.8879 17.8046 22.6491C17.8994 22.6014 17.9957 22.5574 18.0934 22.518C19.0486 22.1405 19.8772 21.553 20.6489 20.895C22.018 19.729 23.2688 18.4434 24.3907 17.0349C24.6932 16.6543 24.9797 16.2654 25.242 15.8546C25.5157 15.4263 25.7188 14.9631 25.9743 14.5272C26.2737 14.0147 26.5209 13.4795 26.7316 12.9261C26.9636 12.3151 27.1978 11.7041 27.429 11.0924C27.4965 10.9142 27.5814 10.7399 27.6178 10.5557C27.7194 10.0349 27.8793 9.53076 28.0643 9.03802C28.3349 8.31558 28.2986 7.53856 28.501 6.80627C28.5169 6.7479 28.5047 6.68043 28.5002 6.61751C28.4775 6.32262 28.4676 6.02622 28.4259 5.73436C28.2758 4.68368 28.0378 3.67772 27.329 2.81883C26.8734 2.26847 26.3473 1.83865 25.7401 1.4907C25.0548 1.09802 24.2952 0.887281 23.5349 0.723537C22.82 0.569651 22.0938 0.431683 21.3425 0.549183C19.768 0.794796 18.2337 1.15032 16.8555 1.99481C16.2415 2.37081 15.6669 2.80064 15.1878 3.34342C14.6003 4.00824 14.0158 4.6761 13.4472 5.35608C13.069 5.80941 12.6733 6.25895 12.3708 6.76155C12.0319 7.32327 11.6249 7.83118 11.2595 8.37092C10.6886 9.21617 10.2846 10.1425 9.90556 11.0825C9.85022 11.219 9.80474 11.363 9.78351 11.5086C9.71453 11.9786 9.69937 12.4395 10.1353 12.7738C10.1845 12.8117 10.2202 12.867 10.2626 12.914C10.7917 13.4917 11.424 13.6448 12.1464 13.359C13.116 12.9754 13.9021 12.3621 14.4782 11.4873C14.5715 11.3463 14.6784 11.2152 14.7799 11.0795C15.375 10.2858 15.9663 9.48831 16.5675 8.69916C17.2596 7.79176 17.9744 6.90103 18.8166 6.1278C19.4307 5.56455 20.1304 5.14383 20.9946 5.05589C21.2932 5.02481 21.5843 5.07409 21.8785 5.07105ZM13.52 24C12.74 23.9841 12.019 23.7748 11.3474 23.3852C11.2746 23.3428 11.1965 23.2988 11.1162 23.2829C10.5802 23.1805 10.1512 22.872 9.71832 22.5688C8.69644 21.8531 7.69731 21.1133 6.82402 20.2135C6.50108 19.8814 6.12053 19.607 5.7847 19.2863C5.05014 18.5866 4.36409 17.8483 3.81525 16.9833C3.52339 16.5232 3.13374 16.1252 2.78276 15.7045C2.19677 15.001 1.73056 14.2368 1.49708 13.3401C1.41748 13.0346 1.29467 12.7404 1.18172 12.4448C1.02025 12.0233 0.975525 11.5935 0.983864 11.1417C1.00888 9.82414 1.29012 8.54452 1.50162 7.25429C1.57136 6.83129 1.77377 6.45604 1.93903 6.06867C2.07927 5.73891 2.25439 5.42355 2.39311 5.09303C2.67587 4.41835 3.14587 3.87179 3.61209 3.32901C4.06541 2.80215 4.58469 2.33822 5.12822 1.8993C5.61035 1.50965 6.14934 1.22689 6.68757 0.93807C7.0287 0.755375 7.42062 0.73036 7.79283 0.678055C8.35531 0.598457 8.92614 0.560549 9.49469 0.539322C9.98213 0.521887 10.4605 0.632568 10.9267 0.771296C11.4323 0.92215 11.9334 1.08892 12.4375 1.24584C12.8893 1.38684 13.2585 1.67491 13.6436 1.93038C14.0302 2.1866 14.3979 2.47164 14.7746 2.74379C15.0096 2.9136 15.0581 2.91208 15.2659 2.73242C15.4895 2.53911 15.7093 2.34201 15.936 2.15173C16.9404 1.30649 18.1033 0.76523 19.3609 0.433954C20.2585 0.19668 21.1651 -0.00951576 22.1059 0.000339508C23.0467 0.0101929 23.948 0.218666 24.8342 0.503698C25.2147 0.625748 25.5824 0.790249 25.9538 0.939587C26.2897 1.07452 26.5929 1.26555 26.8688 1.49979C27.6034 2.12141 28.2 2.83703 28.5525 3.75277C28.7519 4.27129 28.8512 4.80118 28.9414 5.3432C29.1044 6.3211 28.98 7.28233 28.8027 8.23522C28.6988 8.79165 28.4524 9.32078 28.3296 9.87492C28.0817 10.9953 27.6064 12.0339 27.2138 13.1013C27.0326 13.594 26.8052 14.0708 26.5254 14.5226C26.2927 14.8979 26.1191 15.3088 25.9015 15.6931C25.2837 16.7862 24.4521 17.7171 23.6258 18.6488C23.1778 19.1537 22.701 19.6343 22.2135 20.102C21.7117 20.5834 21.2068 21.0701 20.6565 21.4938C19.9234 22.0586 19.1881 22.6324 18.3049 22.966C18.1473 23.0251 17.9994 23.11 17.8486 23.1858C17.3346 23.4451 16.7896 23.6043 16.221 23.6862C15.5941 23.7764 14.9679 23.8689 14.3403 23.9477C14.0689 23.9818 13.7937 23.9833 13.52 24Z" fill="#939393"/>
</svg>
