<svg width="23" height="24" viewBox="0 0 23 24" fill="none" xmlns="http://www.w3.org/2000/svg">
<path d="M18.083 21.1548C18.1031 21.2139 18.1066 21.3097 18.1495 21.3331C18.2462 21.3856 18.3238 21.3106 18.3707 21.2298C18.4989 21.0073 18.574 20.7657 18.6518 20.5216C18.9546 19.5719 19.1958 18.6071 19.4464 17.6432C19.8131 16.2319 20.2197 14.8306 20.6207 13.4293C20.8496 12.6295 20.9977 11.8031 21.3682 11.0475C21.3875 11.0083 21.3947 10.9575 21.3921 10.9133C21.3873 10.8342 21.3342 10.7934 21.2576 10.7875C21.1015 10.775 20.9813 10.8425 20.9236 10.9833C20.8088 11.2607 20.685 11.5382 20.6061 11.8273C20.2469 13.1444 19.7849 14.4299 19.5028 15.772C19.2509 16.9709 18.8499 18.1381 18.5285 19.3228C18.3651 19.9259 18.2322 20.5366 18.083 21.1548ZM1.88768 10.905C1.52128 10.8817 1.43747 10.9716 1.51003 11.2582C1.75888 12.2438 2.15636 13.1861 2.34598 14.1891C2.37564 14.3449 2.45953 14.4916 2.51743 14.6423C2.68339 15.0756 2.85951 15.5038 2.95865 15.9603C3.18484 17.0017 3.4776 18.0298 3.62197 19.0878C3.72611 19.851 4.12976 20.53 4.21782 21.2972C4.23598 21.4555 4.3292 21.6055 4.4815 21.6896C4.5374 21.7205 4.6138 21.738 4.67536 21.728C4.75026 21.7155 4.77925 21.6355 4.77017 21.5672C4.74259 21.3614 4.71294 21.1548 4.66803 20.9523C4.37744 19.6394 4.04211 18.3355 3.85949 17.0001C3.81884 16.7026 3.73694 16.4094 3.6628 16.1178C3.44077 15.2422 3.21433 14.3674 2.98748 13.4926C2.78961 12.7295 2.58841 11.9672 2.3898 11.2041C2.35081 11.055 2.25959 10.9625 2.10738 10.935C2.01615 10.9192 1.92384 10.9075 1.88768 10.905ZM15.8564 22.4486C15.8385 22.5961 15.9518 22.7077 16.1447 22.6344C16.4039 22.5353 16.6571 22.4203 16.9091 22.3037C17.2283 22.157 17.3829 21.8996 17.4651 21.5572C17.6543 20.7699 17.8887 19.9934 18.0838 19.207C18.3123 18.2855 18.623 17.3883 18.8384 16.4627C19.0794 15.4263 19.3425 14.3891 19.6899 13.3852C19.9407 12.6595 20.0559 11.8997 20.3395 11.1883C20.3736 11.1024 20.2735 11.0141 20.1749 11.0275C19.9005 11.065 19.6583 11.2199 19.3667 11.2124C19.0212 11.2049 18.6748 11.2507 18.3284 11.2632C18.1666 11.2682 18.0662 11.3474 18.0094 11.4848C17.9565 11.6123 17.9107 11.7448 17.8787 11.8797C17.75 12.4204 17.6383 12.9653 17.501 13.5043C17.1576 14.8515 17.0359 16.2411 16.6844 17.5891C16.2746 19.1595 16.1781 20.7891 15.8564 22.4486ZM7.26318 22.4828C7.2261 22.1962 7.19453 21.9437 7.1607 21.6913C7.02532 20.6816 6.98592 19.6585 6.73907 18.6646C6.64967 18.3047 6.53954 17.9481 6.48288 17.5824C6.24811 16.0711 6.03875 14.5557 5.80198 13.0444C5.70176 12.4046 5.56229 11.7706 5.42916 11.1358C5.37734 10.8892 5.26679 10.8292 5.03268 10.8858C4.87498 10.9242 4.72077 10.9766 4.56314 11.015C4.19466 11.1049 3.83042 11.1233 3.47701 10.9467C3.3947 10.9058 3.30414 10.8783 3.215 10.8542C3.02946 10.8025 2.89775 10.9092 2.91275 11.1124C2.92466 11.2732 2.95773 11.4324 2.99222 11.5898C3.10619 12.1105 3.22116 12.6304 3.3438 13.1486C3.40778 13.4185 3.46402 13.6951 3.56657 13.9509C3.9134 14.8173 4.11884 15.7187 4.28038 16.6335C4.3971 17.2941 4.50207 17.9573 4.63612 18.6146C4.75626 19.2036 4.89989 19.7893 5.05051 20.3717C5.14932 20.7532 5.23688 21.134 5.28637 21.5272C5.32911 21.8663 5.50581 22.1195 5.87154 22.227C6.24845 22.3378 6.61118 22.4961 6.98042 22.6327C7.13821 22.6919 7.26759 22.6052 7.26318 22.4828ZM17.4987 11.409C17.0817 11.4457 16.7295 11.4415 16.3953 11.5173C16.1267 11.5782 15.9001 11.5473 15.6565 11.4482C15.4215 11.3515 15.1778 11.2707 14.9311 11.2124C14.6806 11.1524 14.5483 11.2557 14.4858 11.5207C14.4593 11.6331 14.4444 11.7489 14.4284 11.8639C14.2986 12.8037 14.1509 13.7418 14.0456 14.6848C13.9275 15.7429 13.8491 16.8051 13.7519 17.8657C13.6082 19.4327 13.5483 21.0065 13.3581 22.5711C13.2492 23.4667 13.2089 23.3925 14.1331 23.2501C14.4057 23.2076 14.6678 23.1018 14.9371 23.0343C15.1429 22.9826 15.2461 22.8468 15.2955 22.6527C15.324 22.5403 15.3711 22.4319 15.3894 22.3186C15.4855 21.7246 15.5717 21.129 15.6675 20.5341C15.8038 19.6885 15.9217 18.8387 16.0907 17.9998C16.3236 16.8426 16.5999 15.6937 16.8515 14.5399C16.9747 13.975 17.0997 13.411 17.256 12.8528C17.3791 12.4129 17.4943 11.9597 17.4987 11.409ZM9.92306 17.355C9.7501 15.9478 9.86166 14.5532 9.80542 13.1627C9.7821 12.5829 9.69262 12.0105 9.68029 11.4324C9.66971 10.9317 9.66013 10.7575 9.01721 11.0241C8.72062 11.1474 8.43312 11.2724 8.09212 11.2941C7.48004 11.3332 6.88803 11.3307 6.32476 11.0541C6.28369 11.0341 6.2372 11.0225 6.1918 11.0141C6.08624 10.9958 6.00818 11.0316 5.99276 11.1449C5.98352 11.2132 5.98493 11.2841 5.9951 11.3524C6.23203 12.9345 6.46805 14.5174 6.71091 16.0986C6.78472 16.5802 6.86678 17.06 6.96459 17.5366C7.19769 18.6721 7.47487 19.7985 7.50953 20.9665C7.52044 21.3356 7.58676 21.7046 7.64274 22.0712C7.67765 22.2995 7.73097 22.5269 7.7962 22.7485C7.81978 22.8293 7.88851 22.9335 7.95958 22.9568C8.46511 23.1234 8.97722 23.2726 9.51608 23.2767C9.67029 23.2784 9.77918 23.1942 9.80417 23.0318C9.84666 22.7569 9.91148 22.4828 9.92097 22.2062C9.97646 20.5824 9.9957 18.9587 9.92306 17.355ZM14.044 11.1158C13.5437 11.3157 13.1337 11.4532 12.6865 11.4757C12.1017 11.504 11.5266 11.4765 10.9684 11.3032C10.041 11.0141 10.0913 11.1683 10.1468 11.9989C10.218 13.0619 10.331 14.1241 10.2571 15.193C10.2491 15.3072 10.2519 15.428 10.2791 15.5388C10.3914 15.9945 10.3774 16.4594 10.3954 16.9226C10.4262 17.709 10.5159 18.4988 10.4744 19.2819C10.4057 20.5783 10.4419 21.8763 10.3724 23.1718C10.3651 23.3067 10.4211 23.4092 10.5534 23.4209C11.1777 23.4792 11.8031 23.4567 12.4276 23.4184C12.6126 23.4067 12.7142 23.2867 12.7476 23.1059C12.773 22.9693 12.8124 22.8343 12.8312 22.6969C12.9693 21.6863 13.0966 20.6741 13.1515 19.6552C13.1803 19.1228 13.186 18.5913 13.2657 18.0606C13.355 17.4658 13.4051 16.8626 13.4327 16.2611C13.4628 15.6104 13.5572 14.9706 13.6654 14.3299C13.8389 13.3035 13.9641 12.2705 14.044 11.1158ZM21.264 8.41483C21.0612 8.46398 21.0242 8.59144 20.937 8.66226C20.6771 8.87304 20.3892 9.00967 20.043 8.92552C19.7954 8.86637 19.7169 8.67392 19.825 8.45148C19.9434 8.20738 20.1313 8.04992 20.3808 7.95578C20.5521 7.89163 20.7646 7.89496 20.8815 7.73917C21.0267 7.54589 20.8703 7.33927 20.8562 7.13766C20.8513 7.06851 20.8224 7.00019 20.823 6.93188C20.8278 6.37286 20.5438 5.95464 20.1434 5.6164C19.6923 5.23483 19.3621 4.76413 19.0516 4.27259C18.9526 4.11596 18.8477 3.9635 18.7445 3.80937C18.5811 3.5661 18.3487 3.42698 18.0693 3.352C17.6668 3.24286 17.2673 3.12289 16.8646 3.01459C15.9953 2.78132 15.2221 2.40141 14.6631 1.65827C14.2563 1.11675 13.6697 0.912638 13.0206 0.900143C12.5993 0.891811 12.1808 0.860985 11.7807 0.750181C11.1654 0.579393 10.5456 0.581894 9.91956 0.601889C9.75752 0.606888 9.59414 0.607721 9.43302 0.593557C8.56233 0.513578 7.83727 0.824329 7.24177 1.4375C6.7379 1.95653 6.20196 2.42808 5.57454 2.79381C5.11475 3.06124 4.78942 3.43697 4.67053 3.97183C4.63546 4.12929 4.57106 4.28091 4.52524 4.43671C4.36994 4.96323 4.07177 5.37896 3.64997 5.74137C2.81827 6.45701 2.1312 7.30429 1.62259 8.27986C1.335 8.83138 1.23394 9.41956 1.50237 10.0227C1.5626 10.1585 1.64408 10.2627 1.79112 10.2977C2.13687 10.3801 2.50935 10.4235 2.80411 10.2268C3.0972 10.0302 3.31089 10.0436 3.53991 10.271C3.89932 10.6276 4.31212 10.6526 4.76192 10.4868C4.87064 10.4468 4.9837 10.4185 5.0925 10.3785C5.57521 10.2018 6.04042 10.1835 6.47322 10.5159C6.52779 10.5576 6.59419 10.5843 6.65642 10.6151C7.12788 10.85 7.60867 10.9267 8.13928 10.815C8.64348 10.7084 9.11261 10.5159 9.58815 10.3385C9.80584 10.2568 9.98754 10.2693 10.1866 10.3626C10.4801 10.5009 10.7736 10.6401 11.0755 10.7575C11.8333 11.0525 12.6049 11.1149 13.3923 10.8708C13.6413 10.7934 13.8537 10.6892 14.0171 10.4651C14.2517 10.1444 14.2788 10.156 14.6492 10.2893C14.7819 10.3368 14.9051 10.3893 15.0088 10.4901C15.2862 10.7575 15.6469 10.8775 16.0022 10.9683C16.5611 11.1108 17.1139 11.0625 17.5654 10.6551C17.7859 10.456 18.0192 10.4043 18.2648 10.5243C18.5499 10.6626 18.8339 10.6801 19.1415 10.6642C19.7312 10.6342 20.2899 10.5318 20.7889 10.1894C20.8995 10.1135 21.0451 10.081 21.1793 10.0494C21.3355 10.0111 21.3959 9.90943 21.4529 9.7703C21.6513 9.28793 21.4653 8.8722 21.264 8.41483ZM11.4057 23.964C11.2206 23.974 11.0356 23.9865 10.8504 23.9949C10.4546 24.0115 10.0669 23.9774 9.68012 23.8741C8.78594 23.6341 7.8631 23.5083 6.98217 23.2151C6.43256 23.0318 5.88287 22.8643 5.31311 22.7435C4.74718 22.6227 4.25856 22.2753 3.73669 22.0262C3.68912 22.0029 3.65172 21.9138 3.64755 21.8521C3.57099 20.7382 3.27615 19.6635 3.05862 18.5746C2.87709 17.6665 2.72654 16.7493 2.42629 15.8679C2.33673 15.6046 2.25075 15.3405 2.16203 15.0772C2.12504 14.9681 2.06422 14.8615 2.04964 14.749C1.92059 13.7509 1.48146 12.8395 1.25119 11.8689C1.16696 11.514 0.981506 11.1791 0.815467 10.8483C0.663507 10.5451 0.548371 10.2677 0.752483 9.93359C0.829213 9.80779 0.8168 9.62117 0.824048 9.46122C0.85654 8.74224 1.12747 8.10991 1.51362 7.51839C2.00915 6.7586 2.56867 6.06378 3.26457 5.46394C3.76835 5.02989 4.17399 4.49752 4.30338 3.78271C4.4136 3.17371 4.77325 2.68301 5.32219 2.3506C6.00034 1.93904 6.58836 1.42 7.15304 0.862652C7.83236 0.191996 8.66414 -0.117083 9.63005 0.0403767C10.0218 0.104525 10.4061 0.152842 10.8029 0.0603657C11.0533 0.00204849 11.3167 0.0320454 11.556 0.132019C11.8635 0.260317 12.1813 0.288641 12.508 0.301138C13.1625 0.325298 13.7885 0.496922 14.4115 0.686039C14.668 0.763517 14.8642 0.900143 15.0199 1.11842C15.1942 1.36252 15.3814 1.59413 15.614 1.79491C16.111 2.22479 16.72 2.36892 17.3271 2.51555C17.7339 2.61386 18.1348 2.72216 18.5273 2.86796C18.7299 2.94377 18.9004 3.04958 19.0293 3.2237C19.2363 3.50279 19.4492 3.77689 19.6521 4.05848C19.9365 4.45421 20.2227 4.8441 20.5914 5.17068C21.0395 5.56725 21.3472 6.06462 21.3856 6.66779C21.4192 7.19348 21.6284 7.65419 21.8099 8.1274C21.9673 8.53813 22.1798 8.92886 22.1282 9.39373C22.1187 9.47788 22.1452 9.60035 22.2028 9.652C22.4507 9.87527 22.3477 10.116 22.2565 10.3526C22.1985 10.5034 22.1254 10.6526 22.0345 10.785C21.7672 11.1758 21.645 11.6181 21.5186 12.0672C21.2733 12.9361 20.9994 13.7984 20.7377 14.6632C20.7108 14.7523 20.685 14.8415 20.6613 14.9306C20.353 16.0961 20.069 17.2683 19.7278 18.4238C19.5442 19.0453 19.4691 19.6952 19.2098 20.2967C19.1285 20.485 19.0408 20.7099 19.0722 20.899C19.122 21.1989 18.9937 21.3839 18.8175 21.573C18.7231 21.6746 18.6372 21.788 18.5282 21.8713C17.7502 22.4611 16.941 23.0026 15.9823 23.2551C15.0415 23.5033 14.1055 23.7724 13.134 23.8907C12.836 23.9266 12.5448 24.0099 12.2394 23.999C11.9618 23.9899 11.6837 23.9974 11.4058 23.9974C11.4058 23.9865 11.4058 23.9749 11.4057 23.964Z" fill="#5B5B5B"/>
<path d="M12.4339 3.15952C12.4309 2.92875 12.3959 2.72381 12.3055 2.53136C12.214 2.33641 12.0514 2.27392 11.8469 2.35806C11.6334 2.44637 11.4227 2.54052 11.209 2.62799C10.9942 2.71464 10.7704 2.78295 10.5627 2.88376C10.3411 2.99207 10.1456 3.47693 10.2351 3.7427C10.3055 3.95098 10.5222 3.80602 10.6649 3.85267C10.8179 3.90266 10.9691 3.95848 11.1201 4.0143C11.3374 4.09511 11.5499 4.19091 11.7714 4.25673C12.0363 4.33588 12.2477 4.21758 12.3012 3.96264C12.3582 3.69105 12.3927 3.41445 12.4339 3.15952ZM9.73145 3.94181C9.7656 3.6169 9.78385 3.3628 9.8205 3.1112C9.88407 2.67631 10.1278 2.38889 10.5648 2.30391C10.9524 2.2281 11.3266 2.13896 11.6781 1.93985C12.1196 1.68991 12.5809 1.87153 12.7217 2.35057C12.8184 2.67965 12.8945 3.02289 12.8401 3.3753C12.8119 3.55858 12.7929 3.7427 12.7726 3.92598C12.7046 4.53999 12.1171 4.93322 11.5221 4.74243C11.2816 4.66495 11.0563 4.53832 10.8272 4.42752C10.6187 4.32671 10.4488 4.34421 10.2559 4.4975C10.0384 4.67079 9.87916 4.60081 9.7966 4.34754C9.77518 4.28173 9.75494 4.21424 9.74586 4.14593C9.73361 4.05428 9.73269 3.96181 9.73145 3.94181Z" fill="#5B5B5B"/>
<path d="M16.1592 7.95C16.4048 7.96583 16.5831 7.90335 16.7079 7.76505C16.9225 7.52595 17.1453 7.30018 17.3957 7.0994C17.4362 7.06774 17.4626 6.9611 17.4397 6.92111C17.4142 6.87612 17.3231 6.8428 17.2634 6.84697C16.6788 6.88612 16.2551 7.22769 15.8625 7.61676C15.7797 7.69923 15.8357 7.86919 15.942 7.90002C16.0293 7.92584 16.1197 7.94084 16.1592 7.95ZM16.1954 8.41821C16.0232 8.38406 15.8149 8.36073 15.6191 8.29908C15.3644 8.21743 15.2392 7.95001 15.3093 7.68424C15.3573 7.50179 15.4427 7.33017 15.5863 7.21353C16.0702 6.81947 16.576 6.45624 17.2056 6.33044C17.3624 6.29878 17.5265 6.29128 17.687 6.29295C17.9914 6.29628 18.1552 6.51455 18.0771 6.79531C17.9425 7.27852 16.92 8.26659 16.4336 8.38072C16.3668 8.39655 16.2977 8.40238 16.1954 8.41821Z" fill="#5B5B5B"/>
<path d="M5.36192 5.34479C5.37558 5.4356 5.38224 5.48142 5.38916 5.52641C5.41873 5.71969 5.57453 5.78384 5.73932 5.66304C6.03349 5.44726 6.32391 5.22566 6.61358 5.00405C6.72281 4.9199 6.73713 4.77661 6.65016 4.71079C6.10422 4.30007 5.64134 4.4317 5.43523 5.0582C5.39999 5.16484 5.37908 5.27647 5.36192 5.34479ZM4.86963 5.42727C4.95269 5.04904 5.06833 4.64414 5.31468 4.3034C5.5337 4.00098 5.94343 3.92267 6.31608 4.05013C6.55727 4.13261 6.80287 4.20342 7.04064 4.29506C7.35764 4.4167 7.45628 4.75578 7.24675 5.03071C7.15069 5.15734 7.02023 5.26398 6.88793 5.35396C6.48487 5.62888 6.07748 5.89548 5.72015 6.23122C5.65384 6.29371 5.56861 6.33869 5.48705 6.38118C5.32084 6.46949 5.14664 6.42367 5.07058 6.26704C4.94728 6.01378 4.88979 5.74219 4.86963 5.42727Z" fill="#5B5B5B"/>
<path d="M4.58953 8.70726C4.63069 8.72308 4.67818 8.76141 4.71183 8.75141C4.93552 8.68559 5.14855 8.59395 5.32226 8.43233C5.38999 8.36984 5.45714 8.28403 5.37149 8.19989C5.33575 8.1649 5.23678 8.1624 5.18263 8.18406C4.96543 8.27237 4.78231 8.4165 4.61977 8.58395C4.59428 8.60978 4.59878 8.6656 4.58953 8.70726ZM5.95667 8.04993C5.965 8.35818 5.83345 8.60645 5.59435 8.7689C5.347 8.93636 5.06682 9.05549 4.80064 9.19546C4.7804 9.20629 4.75724 9.21212 4.73466 9.21712C4.45324 9.2796 4.04684 9.10881 3.96611 8.87138C3.87464 8.60228 4.065 8.409 4.24071 8.28403C4.61744 8.01744 5.02034 7.78333 5.43106 7.57089C5.69607 7.43426 5.88077 7.55756 5.93193 7.84748C5.94401 7.9158 5.94892 7.98494 5.95667 8.04993Z" fill="#5B5B5B"/>
<path d="M9.9736 7.97739L9.98327 7.96823C10.0037 8.13569 10.048 8.30314 10.2296 8.35063C10.4198 8.40145 10.5922 8.31064 10.7525 8.21317C10.8391 8.15985 10.8151 7.9549 10.7117 7.91825C10.6283 7.88909 10.5325 7.86743 10.4466 7.87826C10.2873 7.89742 10.1311 7.9424 9.9736 7.97739ZM11.3298 8.10153C11.3373 8.38396 11.2091 8.57807 10.9371 8.68471C10.8516 8.71803 10.76 8.73553 10.6722 8.76385C10.1385 8.93298 9.98643 8.88799 9.66985 8.46477C9.62853 8.40895 9.59295 8.3498 9.5558 8.29148C9.26246 7.83077 9.34502 7.62833 9.86671 7.53002C10.092 7.48753 10.3161 7.42921 10.5435 7.40922C10.9682 7.37173 11.3189 7.68997 11.3298 8.10153Z" fill="#5B5B5B"/>
<path d="M17.2521 3.96013C17.1565 3.97429 17.0867 3.97346 17.0268 3.99762C16.998 4.00929 16.9646 4.07426 16.9733 4.10259C17.0117 4.22672 17.1219 4.26088 17.2357 4.27588C17.3253 4.28754 17.4203 4.28421 17.4735 4.19757C17.4904 4.17008 17.4815 4.09759 17.4583 4.08009C17.3906 4.02761 17.3099 3.99179 17.2521 3.96013ZM16.935 3.60106C17.4457 3.61688 17.8005 3.69603 18.106 3.92764C18.2786 4.05844 18.2726 4.33753 18.0977 4.46166C17.4942 4.89071 16.7706 4.77408 16.3312 4.1784C16.2346 4.0476 16.2734 3.85266 16.4134 3.75435C16.6123 3.61355 16.841 3.60355 16.935 3.60106Z" fill="#5B5B5B"/>
</svg>
