<svg width="19" height="24" viewBox="0 0 19 24" fill="none" xmlns="http://www.w3.org/2000/svg">
<path d="M4.33382 1.73046C4.15019 1.68373 3.95714 1.65536 3.78489 1.58695C3.36749 1.42009 2.94079 1.28216 2.49531 1.18705C2.44612 1.17648 2.40166 1.14645 2.35778 1.12142C2.34595 1.11474 2.33431 1.08749 2.33975 1.08137C2.3579 1.06079 2.38649 1.02909 2.40647 1.03131C2.71891 1.06858 3.04373 1.07469 3.33973 1.15868C3.945 1.3311 4.58492 1.35502 5.18785 1.52688C5.25298 1.5458 5.32659 1.5508 5.39532 1.54746C5.4528 1.54468 5.48979 1.49462 5.47126 1.45068C5.44161 1.37949 5.40303 1.30552 5.34688 1.2499C4.92556 0.830524 4.41571 0.545752 3.76877 0.492912C3.29635 0.454535 2.82273 0.4245 2.34898 0.40114C2.03345 0.38501 1.71678 0.382782 1.40055 0.382782C1.26169 0.382782 1.21357 0.460093 1.27769 0.569107C1.52499 0.987925 1.83427 1.34723 2.35436 1.54302C2.73085 1.68429 3.12094 1.77328 3.51868 1.82501C3.78622 1.86005 4.06679 1.85171 4.33382 1.73046ZM10.1799 4.4169C9.9043 4.31289 9.56645 4.4575 9.21809 4.46974C9.03687 4.47641 8.8736 4.53425 8.73126 4.63047C8.2947 4.9247 8.05213 5.32072 8.12327 5.79849C8.21028 6.38361 8.58424 6.83914 9.18401 7.10389C9.62664 7.29967 10.1208 7.36308 10.6217 7.34695C10.8597 7.33972 11.0606 7.26519 11.2459 7.13115C11.5938 6.8803 11.841 6.57939 12.0086 6.20618C12.2786 5.60493 12.1363 5.08322 11.5541 4.68665C11.1661 4.42246 10.7331 4.35293 10.1799 4.4169ZM3.24254 13.7722C3.1026 13.766 3.01471 13.761 2.92669 13.7588C2.63999 13.7516 2.59262 13.8039 2.65933 14.0636C2.69038 14.1843 2.7227 14.3061 2.77075 14.4218C2.95261 14.8606 3.07175 15.3123 3.16508 15.7706C3.21459 16.0142 3.26012 16.2611 3.34902 16.4948C3.66842 17.3329 3.85786 18.2017 4.15057 19.046C4.26319 19.3709 4.35058 19.7046 4.41546 20.0394C4.57885 20.8843 4.91342 21.6841 5.2194 22.4917C5.28795 22.6724 5.4074 22.8237 5.56984 22.9472C5.63491 22.9967 5.72122 23.0434 5.80728 22.99C5.8709 22.9511 5.85641 22.881 5.84263 22.8187C5.70054 22.1808 5.55018 21.5439 5.42074 20.9043C5.36231 20.6156 5.36775 20.3164 5.30489 20.0288C5.19885 19.5433 5.14239 19.0483 4.96356 18.5755C4.93062 18.4882 4.91885 18.3942 4.90513 18.3018C4.81117 17.6728 4.71524 17.0443 4.62829 16.4141C4.57942 16.0598 4.50341 15.7111 4.41646 15.3629C4.35993 15.1365 4.32743 14.9051 4.29538 14.6749C4.26749 14.4741 4.23556 14.2755 4.1581 14.0847C4.10068 13.9435 3.99501 13.8445 3.81998 13.825C3.61093 13.8011 3.40069 13.7861 3.24254 13.7722ZM15.1083 13.9907C15.1083 14.003 15.1083 14.0152 15.1083 14.0269C14.8452 14.0269 14.5809 14.0197 14.3179 14.0286C13.9688 14.0402 13.9138 14.0914 13.8506 14.4112C13.848 14.4262 13.8493 14.4424 13.8461 14.4574C13.7051 15.2366 13.5097 16.0064 13.3662 16.7856C13.1379 18.0221 12.8281 19.2468 12.5796 20.4805C12.4107 21.3181 12.2862 22.1624 12.1439 23.0034C12.1287 23.0952 12.1211 23.1892 12.1262 23.2809C12.1313 23.3677 12.1945 23.4194 12.2976 23.425C13.0608 23.4678 13.3295 23.3137 13.5951 22.6763C13.6375 22.5746 13.6773 22.4717 13.7108 22.3677C13.9454 21.6385 14.2534 20.9288 14.445 20.1874C14.5379 19.8269 14.6688 19.4743 14.7479 19.1089C14.7871 18.9298 14.9015 18.764 14.9489 18.5855C15.0495 18.2095 15.1285 17.8285 15.2164 17.4497C15.3049 17.0715 15.3796 16.69 15.4845 16.3151C15.6862 15.5943 15.9063 14.8773 16.115 14.1582C16.1611 14.0008 16.0916 13.9301 15.8968 13.9385C15.6338 13.9501 15.3707 13.9729 15.1083 13.9907ZM13.4003 14.577C13.4003 14.4819 13.3972 14.4351 13.401 14.389C13.4048 14.3428 13.4193 14.2972 13.4218 14.251C13.4294 14.1114 13.3706 14.0625 13.2012 14.0664C13.1658 14.0675 13.1303 14.0692 13.0956 14.0736C12.572 14.147 12.0434 14.1354 11.5156 14.1454C10.856 14.1582 10.771 14.2255 10.7075 14.7961C10.7041 14.8267 10.6973 14.859 10.7032 14.8884C10.7865 15.3067 10.6986 15.7222 10.6843 16.1388C10.6591 16.8802 10.5861 17.6194 10.5846 18.3636C10.5831 19.1195 10.494 19.8759 10.4367 20.6323C10.383 21.342 10.3204 22.0512 10.2628 22.7614C10.2478 22.9461 10.2271 23.1319 10.2266 23.3171C10.226 23.5234 10.3144 23.6108 10.5368 23.6108C10.7823 23.6108 11.0282 23.5902 11.2729 23.5696C11.4918 23.5512 11.626 23.4372 11.6697 23.2503C11.7506 22.9016 11.8322 22.5534 11.9005 22.203C12.0244 21.5628 12.1022 20.9138 12.2647 20.2814C12.5359 19.2246 12.7117 18.1528 12.9495 17.091C13.0791 16.5148 13.1025 15.923 13.284 15.354C13.37 15.0837 13.4143 14.8095 13.4003 14.577ZM7.05811 14.0681C7.02681 14.0541 6.99848 14.0347 6.96667 14.028C6.26016 13.8812 5.53696 13.9068 4.81983 13.8728C4.60838 13.8634 4.54616 13.9385 4.58012 14.1398C4.68325 14.7522 4.79315 15.3634 4.89881 15.9753C4.98323 16.4647 5.06087 16.9553 5.14972 17.4442C5.23034 17.8875 5.32279 18.3285 5.40872 18.7713C5.52121 19.3508 5.6282 19.9315 5.74544 20.5099C5.87513 21.1507 6.01311 21.7898 6.14855 22.4288C6.20009 22.6724 6.25378 22.9155 6.30835 23.1586C6.33332 23.2693 6.39011 23.3638 6.5136 23.4133C6.90489 23.5685 7.31319 23.6519 7.74469 23.6274C7.86743 23.6202 7.94122 23.5485 7.92952 23.4439C7.90543 23.2281 7.83044 23.0095 7.85301 22.7987C7.92794 22.0973 7.79395 21.4071 7.74096 20.7135C7.67728 19.8809 7.534 19.0527 7.45135 18.2206C7.36725 17.3735 7.29947 16.5242 7.25527 15.6744C7.23275 15.2405 7.23016 14.8095 7.09219 14.3873C7.05905 14.2861 7.06829 14.1743 7.05811 14.0681ZM10.3476 16.0676C10.3595 15.9291 10.3739 15.79 10.3825 15.651C10.4056 15.28 10.4338 14.909 10.445 14.5375C10.4551 14.2032 10.3771 14.1187 9.98461 14.1253C9.33122 14.1359 8.68491 14.0597 8.03456 14.0391C7.55133 14.0241 7.47759 14.0897 7.4977 14.5086C7.49916 14.5392 7.49909 14.5709 7.50643 14.6009C7.58503 14.9218 7.56036 15.2489 7.58736 15.5726C7.67475 16.6221 7.76682 17.6711 7.86762 18.7201C7.90164 19.0744 7.99054 19.4248 8.01394 19.7797C8.07401 20.6907 8.26434 21.5934 8.23779 22.5106C8.23203 22.7092 8.28875 22.9094 8.32005 23.1091C8.40409 23.643 8.43235 23.7098 9.14158 23.687C9.82184 23.6653 9.84208 23.6547 9.90057 23.059C9.96709 22.381 10.0144 21.7019 10.0723 21.0233C10.1091 20.5917 10.1807 20.1601 10.1814 19.7285C10.1822 19.1562 10.2305 18.5849 10.262 18.016C10.2979 17.3669 10.2658 16.715 10.3476 16.0676ZM3.93791 10.4327C4.1844 10.3654 4.34925 10.3143 4.5177 10.2759C5.20069 10.119 5.89012 9.97276 6.60017 10.0629C6.85412 10.0951 7.08883 10.0823 7.32937 10.0345C7.55252 9.99001 7.77359 9.93772 7.99674 9.89378C8.06351 9.88043 8.1344 9.87599 8.20282 9.87932C8.23247 9.88043 8.2701 9.90435 8.28742 9.92771C8.32182 9.97388 8.29615 10.0189 8.24676 10.0401C7.85035 10.2136 7.43188 10.3315 6.99936 10.4099C6.91501 10.4255 6.81788 10.4344 6.73808 10.4127C6.3 10.2954 5.86894 10.3554 5.43231 10.4211C4.85486 10.5084 4.29999 10.6563 3.78761 10.9016C3.34017 11.1158 3.04696 11.4712 2.85682 11.8766C2.7963 12.0057 2.75886 12.1336 2.64169 12.2343C2.52237 12.3361 2.46717 12.4656 2.46679 12.6108C2.46514 13.2888 2.64467 13.4496 3.42427 13.4729C3.47707 13.4746 3.53 13.4757 3.58273 13.474C4.02385 13.4635 4.46225 13.4779 4.89799 13.5491C5.03482 13.5719 5.17874 13.5591 5.31925 13.5658C6.09202 13.602 6.86631 13.6231 7.63688 13.6821C8.14565 13.721 8.6519 13.7705 9.16359 13.766C9.46262 13.7633 9.76557 13.751 10.06 13.7866C10.4641 13.835 10.8657 13.8239 11.2696 13.8189C12.3418 13.8061 13.406 13.6526 14.4804 13.6704C14.5152 13.6709 14.5506 13.6626 14.586 13.6637C15.1658 13.6826 15.7381 13.5586 16.3224 13.6031C16.6531 13.6287 16.9907 13.5986 17.324 13.578C17.7318 13.5525 17.9127 13.3973 17.9911 13.0358C18.103 12.5174 17.969 12.0313 17.7634 11.5362C17.5915 11.5952 17.4498 11.6725 17.3006 11.6886C16.9781 11.7237 16.6961 11.851 16.4014 11.9489C15.6685 12.1926 14.9104 12.3005 14.1282 12.2827C14.0732 12.281 13.9796 12.2966 14.008 12.1636C14.3988 12.1442 14.8105 12.172 15.1829 12.0085C15.9145 11.9428 16.5336 11.5746 17.2298 11.4128C17.3177 11.3922 17.3999 11.3316 17.4081 11.2554C17.4327 11.0257 17.4606 10.7898 17.2159 10.618C17.0091 10.4733 16.8023 10.3282 16.6056 10.1741C16.3432 9.96776 16.0979 9.74583 15.8317 9.54338C15.568 9.34203 15.2765 9.23524 14.9148 9.36206C14.6378 9.45939 14.3482 9.53003 14.0611 9.60456C13.8253 9.66518 13.5869 9.72136 13.346 9.76419C13.2461 9.78254 13.136 9.77031 13.0342 9.75473C12.9957 9.74861 12.9508 9.69856 12.9362 9.66074C12.9103 9.59399 12.9571 9.54393 13.0241 9.51279C13.0545 9.49888 13.0899 9.48998 13.124 9.48498C13.7538 9.39821 14.3482 9.2002 14.9496 9.02667C15.1487 8.96883 15.3448 8.89263 15.5263 8.8003C15.9499 8.58505 15.9771 8.24187 15.599 7.97824C15.3195 7.78357 14.9945 7.65731 14.6606 7.56053C14.1737 7.41925 13.7159 7.22125 13.2486 7.04104C13.007 6.9476 12.7611 6.8625 12.5208 6.76572C12.3728 6.70677 12.2514 6.72234 12.1395 6.82524C11.9814 6.97096 11.8239 7.11779 11.6589 7.2574C11.2124 7.63673 10.6816 7.80248 10.0649 7.7057C9.77094 7.66009 9.48095 7.59112 9.19312 7.51993C8.93569 7.45652 8.71754 7.34695 8.54244 7.15005C8.30917 6.88753 8.20813 6.89421 7.8754 7.08109C7.73198 7.16174 7.62625 7.24628 7.67248 7.41703C7.69568 7.50268 7.62455 7.56999 7.54443 7.60114C7.4172 7.65064 7.28296 7.69235 7.14701 7.71794C6.73435 7.7958 6.31979 7.86588 5.90542 7.93652C5.02989 8.08614 4.17169 8.77305 4.02391 9.6257C3.98192 9.8682 3.97073 10.1146 3.93791 10.4327ZM18.1644 13.8561C18.3718 13.9579 18.4236 14.0263 18.3559 14.1654C18.2522 14.379 18.1631 14.6076 18.0075 14.7894C17.7401 15.1009 17.6711 15.4663 17.5548 15.8212C17.4726 16.0743 17.3986 16.329 17.3177 16.5826C16.9673 17.6861 16.617 18.7891 16.2642 19.892C16.0543 20.5478 15.8475 21.2041 15.6243 21.8565C15.5534 22.0623 15.444 22.2603 15.3321 22.4528C15.145 22.7731 14.9217 23.0701 14.5152 23.2109C13.9954 23.618 13.3504 23.6942 12.6953 23.7426C12.5897 23.7504 12.479 23.7442 12.3804 23.7715C11.8707 23.9128 11.3375 23.9144 10.8145 23.9728C10.5192 24.0057 10.2171 23.9956 9.91802 23.9973C9.26627 24.0001 8.61434 23.9901 7.96278 23.9995C7.04792 24.0134 6.24302 23.7086 5.45482 23.3521C5.13865 23.2092 4.95028 22.9633 4.85138 22.6736C4.5373 21.7536 4.20236 20.8392 3.98926 19.8942C3.87652 19.3942 3.70894 18.9036 3.57072 18.4075C3.2899 17.3997 2.91144 16.4147 2.67072 15.3968C2.57795 15.0047 2.40849 14.627 2.27766 14.2416C2.23757 14.1231 2.1947 14.003 2.18003 13.8812C2.16194 13.731 2.10769 13.6198 1.94543 13.5463C1.82725 13.4929 1.82276 13.3878 1.92292 13.3189C2.07272 13.216 2.07411 13.0775 2.06709 12.9401C2.03762 12.3678 2.2991 11.8839 2.65453 11.4295C2.85435 11.1736 3.06814 10.9255 3.34264 10.7275C3.47815 10.6296 3.54707 10.5189 3.52734 10.3666C3.49693 10.1318 3.5699 9.90491 3.59329 9.67464C3.64755 9.13902 3.9555 8.72743 4.37119 8.3431C4.82009 7.92818 5.35346 7.70292 5.97827 7.60948C6.03043 7.60169 6.0821 7.59056 6.13452 7.58556C6.7893 7.52493 7.26248 7.18509 7.71023 6.80132C7.83777 6.6923 7.87893 6.57272 7.82816 6.42366C7.79793 6.33467 7.77947 6.24289 7.75222 6.15335C7.5512 5.49203 7.76936 4.92749 8.29432 4.45194C8.59841 4.17662 8.98128 4.02533 9.43448 4.05203C9.5574 4.05926 9.68103 4.06092 9.80427 4.05926C9.99523 4.05647 10.0389 3.97027 9.93276 3.81676C9.68665 3.46135 9.31889 3.22107 8.9233 3.01416C8.57526 2.83284 8.21641 2.66542 7.85358 2.50746C7.68184 2.43293 7.49321 2.37954 7.3056 2.34394C6.96161 2.27776 6.61376 2.22603 6.26547 2.18042C6.00305 2.14649 5.74064 2.15261 5.47923 2.21435C5.24141 2.27052 4.99613 2.30223 4.75666 2.3534C3.9431 2.52805 3.19461 2.81949 2.55254 3.3045C2.39078 3.42686 2.24092 3.54199 2.17054 3.73444C2.11205 3.89407 1.946 3.9369 1.78545 3.86626C1.39226 3.69328 1.4316 3.4619 1.65753 3.28169C1.93146 3.06366 2.20848 2.84786 2.54988 2.70825C2.96374 2.53917 3.37526 2.36563 3.83895 2.28165C3.75283 2.11812 3.61473 2.17374 3.50388 2.16485C2.9007 2.11924 2.32515 1.99465 1.80973 1.7032C1.69244 1.63701 1.57545 1.56359 1.48016 1.47516C1.14041 1.15979 0.891839 0.784357 0.614118 0.428391C0.604316 0.416155 0.598622 0.400581 0.59135 0.386675C0.449328 0.110802 0.516611 0.00401115 0.845488 0.00123024C1.03904 -0.000436783 1.23678 -0.00488472 1.42559 0.0257053C1.8631 0.096344 2.30295 0.0818768 2.74287 0.0852146C3.20131 0.0879955 3.6602 0.0941181 4.11194 0.170317C4.66308 0.26376 5.12051 0.526285 5.55169 0.823851C5.64383 0.887814 5.70156 0.994602 5.76131 1.0886C5.84725 1.22375 5.93078 1.36169 5.99673 1.50464C6.10056 1.7299 6.27369 1.83168 6.55578 1.85727C7.26121 1.92179 7.94014 2.07808 8.558 2.40234C8.78475 2.52137 9.02112 2.62649 9.25015 2.74218C9.66724 2.95298 10.0418 3.20549 10.2912 3.57926C10.3443 3.65879 10.4207 3.72665 10.4785 3.80396C10.5713 3.92911 10.6952 3.99085 10.8662 4.01421C11.1991 4.05981 11.5166 4.15047 11.7892 4.33736C12.3741 4.73726 12.6833 5.24118 12.5587 5.90918C12.5442 5.98538 12.5157 6.05935 12.4955 6.13499C12.4677 6.23733 12.5069 6.32132 12.6036 6.37638C12.7067 6.43478 12.8148 6.48874 12.9274 6.53045C13.7064 6.81912 14.4854 7.10778 15.2695 7.38644C15.5174 7.47487 15.7425 7.59223 15.9562 7.72961C16.0264 7.77522 16.101 7.82528 16.1472 7.88758C16.3464 8.15678 16.5089 8.44655 16.1535 8.71687C16.1143 8.74635 16.0833 8.78639 16.0543 8.82477C15.9588 8.95047 15.9588 9.04447 16.0865 9.15905C16.3458 9.39098 16.6101 9.61846 16.882 9.83816C17.0761 9.99557 17.2879 10.1357 17.4909 10.2848C17.7388 10.4672 17.955 10.6691 17.9728 10.9756C17.981 11.1174 18.0891 11.1947 18.2055 11.2676C18.3983 11.3883 18.4672 11.5335 18.4021 11.7487C18.3635 11.8766 18.3806 12.0324 18.4249 12.162C18.5362 12.4901 18.4495 12.8099 18.3989 13.1286C18.3705 13.3094 18.2801 13.4785 18.306 13.672C18.3136 13.7299 18.2187 13.7989 18.1707 13.8628C17.7622 13.8539 17.3701 13.964 16.9667 13.993C16.7321 14.0097 16.5785 14.1342 16.507 14.3284C16.4204 14.5636 16.3369 14.8006 16.2642 15.0397C16.1219 15.503 15.967 15.9641 15.857 16.4336C15.733 16.9642 15.6344 17.4998 15.4674 18.0226C15.3441 18.4097 15.2063 18.7952 15.1089 19.1879C14.88 20.1117 14.5512 21.0116 14.2736 21.9233C14.1825 22.2219 14.0517 22.5112 13.9391 22.8043C13.917 22.8627 13.8885 22.92 13.8746 22.98C13.8689 23.0045 13.886 23.0457 13.9081 23.0596C13.9296 23.0729 13.9834 23.0729 14.0023 23.0579C14.0681 23.0078 14.1313 22.9533 14.1825 22.8921C14.2584 22.8026 14.34 22.7103 14.4696 22.7036C14.7219 22.6903 14.8402 22.5417 14.9376 22.3727C15.0488 22.1797 15.1633 21.9861 15.2468 21.7836C15.6502 20.807 15.8702 19.783 16.2345 18.7957C16.3597 18.4581 16.4387 18.1072 16.5468 17.764C16.7062 17.2567 16.8839 16.7534 17.0337 16.2439C17.2822 15.3996 17.6117 14.5875 18.1644 13.8561Z" fill="#939393"/>
<path d="M9.52418 5.31722C9.50496 5.29273 9.49219 5.25468 9.46799 5.24947C9.30208 5.21559 9.12051 5.33963 9.15103 5.46575C9.15507 5.48243 9.21415 5.50848 9.23257 5.50223C9.35182 5.46314 9.46079 5.41051 9.52418 5.31722ZM8.58153 5.98065C8.55706 5.82951 8.63914 5.58561 8.727 5.35266C8.92624 4.82368 9.33851 4.80232 9.90903 4.93678C10.0268 4.9644 10.0774 5.04778 10.0861 5.14055C10.0944 5.22966 10.0695 5.31774 10.0021 5.38809C9.92509 5.46887 9.84201 5.5533 9.73781 5.60959C9.34047 5.82378 9.02197 6.07498 8.96248 6.47054C8.95555 6.5164 8.90473 6.54245 8.84248 6.54506C8.75899 6.54923 8.70098 6.51588 8.65991 6.46376C8.5656 6.3439 8.61077 6.20944 8.58153 5.98065Z" fill="#939393"/>
</svg>
